<svg width="872" height="979" viewBox="0 0 872 979" fill="none" xmlns="http://www.w3.org/2000/svg">
<path opacity="0.2" d="M855.248 209.463C832.828 124.861 781.605 24.8758 710.5 -30.1159C613.899 -104.835 487.457 -90.2992 405.123 -62.188C358.976 -46.4212 299.985 -3.69683 270.259 34.9512C209.383 114.132 211.652 242.612 195.539 327.599C176.311 429.7 97.0924 494.613 113.128 606.788C131.356 734.269 250.108 794.491 368.167 802.643C498.148 811.565 629.666 771.494 725.421 681.239C746.34 661.403 765.333 639.629 782.143 616.21C865.361 500.689 891.704 347.058 855.248 209.463ZM572.406 829.909C561.83 827.601 550.87 830.255 540.295 832.562C478.266 846.137 413.391 850.79 350.362 841.945C321.84 837.316 293.674 830.712 266.067 822.179C239.148 814.488 212.613 812.296 189.655 831.793C184.734 836.004 180.504 840.961 177.119 846.483C164.851 866.326 163.082 892.861 175.081 912.973C186.002 931.239 205.653 942.43 225.073 950.89C273.546 971.861 326.302 981.031 379.008 977.649C431.713 974.266 482.864 958.427 528.258 931.432C560.446 912.204 590.634 892.63 592.441 851.944C593.018 841.138 582.981 832.024 572.406 829.909Z" fill="#25AAE3"/>
<path opacity="0.1" d="M78.6747 109.854C73.4434 111.916 68.3425 114.295 63.4006 116.977C48.7001 124.974 36.383 139.351 35.45 156.006C34.1338 179.371 56.0614 199.065 79.0477 202.86C134.837 212.36 186.503 178.223 205.634 127.285C215.495 101.041 207.893 73.7999 175.355 83.9673C145.444 93.3597 108.809 97.9318 78.6747 109.854Z" fill="#25AAE3"/>
<path opacity="0.1" d="M102.179 371.548C108.64 376.855 115.87 382.315 124.253 382.584C128.811 382.45 133.249 381.089 137.099 378.646C140.949 376.203 144.071 372.768 146.134 368.702C150.054 360.577 151.878 351.601 151.441 342.59C151.22 309.807 138.433 278.357 115.716 254.719C89.8736 228.108 29.6903 195.459 5.00175 239.914C-10.9574 268.602 14.7311 289.675 33.6128 309.134C55.3313 331.154 78.22 351.989 102.179 371.548Z" fill="#25AAE3"/>
</svg>
