<svg width="988" height="411" viewBox="0 0 988 411" fill="none" xmlns="http://www.w3.org/2000/svg">
<g clip-path="url(#clip0)">
<path d="M93.6425 87.8218C-57.7782 109.263 -116.133 252.438 -44.6987 172.382C-44.6986 220.916 -25.5825 259.944 8.62556 259.944C37.1993 259.944 183.019 324.49 270.216 339C337.291 309.145 625.888 210.176 654.553 172.382C676.185 143.861 448.931 132.854 397.993 132.854C360.767 132.854 299.394 172.382 259.652 172.382C219.91 172.382 168.39 77.2378 93.6425 87.8218Z" fill="#DDF5FF"/>
<path d="M-6 430V78.8875C115.244 212.43 183.381 293.956 467.954 163.915C669.291 71.9094 890.621 10.6842 988 58.8811V430H-6Z" fill="#DDF5FF"/>
<path d="M489.68 165.514C822.891 33.127 952.154 125.106 987 191.278V41.035C941.415 8.58171 778.133 -33.9235 489.68 120.767C201.228 275.458 37.8711 134.715 -6 70.2609V93.3295C27.1318 159.502 166.817 293.791 489.68 165.514Z" fill="#25AAE3"/>
</g>
<defs>
<clipPath id="clip0">
<rect width="992" height="411" fill="white" transform="translate(-4)"/>
</clipPath>
</defs>
</svg>
