<svg width="989" height="1085" viewBox="0 0 989 1085" fill="none" xmlns="http://www.w3.org/2000/svg">
<path d="M-5 195C47.3333 148.833 173.7 72.2 260.5 135C369 213.5 376 359 604.5 135C787.3 -44.2 935 60.3334 986 135" stroke="#404642" stroke-width="2"/>
<path d="M-8.5 83.0001C-8.5 152.667 30.4 271.1 186 187.5C380.5 83 410.887 255 477.5 255C608.5 255 634.471 33.2384 724.5 8.00003C844 -25.4999 914 100.333 997.5 187.5" stroke="#10B981" stroke-width="3"/>
<path d="M3.5 530.5C21 506 75.8 462.3 155 483.5C254 510 267.5 642.5 324.5 650.5C381.5 658.5 449.5 463 514.5 442C579.5 421 692 559 754.5 580C817 601 801 525 892.5 483.5C965.7 450.3 1004.67 442 1015 442" stroke="#404642" stroke-width="2"/>
<path d="M1 465.5C34.1667 461.167 113.5 479.1 165.5 585.5C230.5 718.5 457.5 421 619 465.5C780.5 510 747 522.5 838 554C910.8 579.2 981 505.5 1007 465.5" stroke="#10B981" stroke-width="2"/>
<path d="M-15 824C45.8333 822.833 180.1 845.7 230.5 946.5C293.5 1072.5 495.5 1089.5 595 990C674.6 910.4 889.167 881.5 986.5 877" stroke="#10B981" stroke-width="2"/>
<path d="M5 880.5C33.6667 848.5 114.5 758.575 230.5 850.5C389.5 976.5 334.058 1064.89 489 1082.5C665 1102.5 674.5 884 830.5 850.5C955.3 823.7 1036.17 834 1056 827.5" stroke="#404642" stroke-width="2"/>
</svg>
