<svg width="90" height="70" viewBox="0 0 90 70" fill="none" xmlns="http://www.w3.org/2000/svg">
<path d="M90 65C90 67.7614 87.7614 70 85 70H5C2.23858 70 0 67.7614 0 65V65C0 62.2386 2.23858 60 5 60H85C87.7614 60 90 62.2386 90 65V65ZM90 45C90 47.7614 87.7614 50 85 50H5C2.23858 50 0 47.7614 0 45V45C0 42.2386 2.23858 40 5 40H85C87.7614 40 90 42.2386 90 45V45ZM90 25C90 27.7614 87.7614 30 85 30H5C2.23858 30 0 27.7614 0 25V25C0 22.2386 2.23858 20 5 20H85C87.7614 20 90 22.2386 90 25V25ZM90 5C90 7.76142 87.7614 10 85 10H5C2.23858 10 0 7.76142 0 5V5C0 2.23858 2.23858 0 5 0H85C87.7614 0 90 2.23858 90 5V5Z" fill="#455A64"/>
</svg>
