<svg width="31" height="30" viewBox="0 0 31 30" fill="none" xmlns="http://www.w3.org/2000/svg">
<path d="M15.4958 9.99787C12.6497 9.99787 10.3271 12.2456 10.3271 15C10.3271 17.7544 12.6497 20.0021 15.4958 20.0021C18.342 20.0021 20.6646 17.7544 20.6646 15C20.6646 12.2456 18.342 9.99787 15.4958 9.99787ZM30.9983 15C30.9983 12.9286 31.0177 10.876 30.8975 8.80832C30.7772 6.40669 30.2111 4.27525 28.3964 2.51907C26.5779 0.759128 24.3793 0.215011 21.8977 0.098682C19.7573 -0.0176466 17.6362 0.00111617 15.4997 0.00111617C13.3593 0.00111617 11.2383 -0.0176466 9.10176 0.098682C6.62013 0.215011 4.41768 0.762881 2.60299 2.51907C0.784418 4.27901 0.222173 6.40669 0.10197 8.80832C-0.0182344 10.8797 0.00115335 12.9324 0.00115335 15C0.00115335 17.0676 -0.0182344 19.124 0.10197 21.1917C0.222173 23.5933 0.788296 25.7247 2.60299 27.4809C4.42156 29.2409 6.62013 29.785 9.10176 29.9013C11.2422 30.0176 13.3632 29.9989 15.4997 29.9989C17.6401 29.9989 19.7611 30.0176 21.8977 29.9013C24.3793 29.785 26.5817 29.2371 28.3964 27.4809C30.215 25.721 30.7772 23.5933 30.8975 21.1917C31.0215 19.124 30.9983 17.0714 30.9983 15ZM15.4958 22.6964C11.0948 22.6964 7.54298 19.2591 7.54298 15C7.54298 10.7409 11.0948 7.30355 15.4958 7.30355C19.8968 7.30355 23.4487 10.7409 23.4487 15C23.4487 19.2591 19.8968 22.6964 15.4958 22.6964ZM23.7744 8.7858C22.7468 8.7858 21.9171 7.98276 21.9171 6.98834C21.9171 5.99392 22.7468 5.19087 23.7744 5.19087C24.8019 5.19087 25.6317 5.99392 25.6317 6.98834C25.6321 7.22447 25.5842 7.45833 25.491 7.67655C25.3978 7.89476 25.261 8.09303 25.0884 8.26C24.9159 8.42697 24.711 8.55936 24.4855 8.64958C24.2601 8.73981 24.0184 8.7861 23.7744 8.7858Z" fill="#25AAE3"/>
</svg>
