<svg width="197" height="152" viewBox="0 0 197 152" fill="none" xmlns="http://www.w3.org/2000/svg">
<g opacity="0.7">
<path d="M13.1591 103.748C38.4832 130.869 64.0537 134.303 99.9971 140.73C135.94 147.157 162.332 142.715 181.78 126.335C204.234 107.401 203.347 64.0282 168.987 48.5845C158.252 43.7488 145.47 42.2852 136.066 35.4845C118.108 22.5073 103.584 2.31487 74.7551 -1.47697C45.926 -5.26881 26.4893 12.8 26.4893 12.8C2.8137 37.0248 -12.165 76.6062 13.1591 103.748Z" fill="#DDF5FF"/>
<path d="M13.1591 103.748C38.4832 130.869 64.0537 134.303 99.9971 140.73C135.94 147.157 162.332 142.715 181.78 126.335C204.234 107.401 203.347 64.0282 168.987 48.5845C158.252 43.7488 145.47 42.2852 136.066 35.4845C118.108 22.5073 103.584 2.31487 74.7551 -1.47697C45.926 -5.26881 26.4893 12.8 26.4893 12.8C2.8137 37.0248 -12.165 76.6062 13.1591 103.748Z" fill="url(#paint0_linear)"/>
</g>
<path d="M110.086 138.105V127.707H77.3135V138.105C77.3083 141.492 76.0811 144.778 73.8304 147.433L72.3955 149.122H115.004L113.569 147.433C111.318 144.778 110.091 141.492 110.086 138.105Z" fill="white" stroke="#2E353A" stroke-linecap="round" stroke-linejoin="round"/>
<path d="M75.2979 145.386H112.101C110.78 143.158 110.086 140.652 110.086 138.105V127.707H77.3133V138.105C77.3126 140.652 76.6191 143.158 75.2979 145.386Z" fill="#25AAE3"/>
<path d="M155.075 38.6776H32.6442C30.0793 38.6776 28 40.6204 28 43.017V126.647C28 129.044 30.0793 130.987 32.6442 130.987H155.075C157.64 130.987 159.719 129.044 159.719 126.647V43.017C159.719 40.6204 157.64 38.6776 155.075 38.6776Z" stroke="#2E353A" stroke-linecap="round" stroke-linejoin="round"/>
<path d="M28 116.638H159.725V126.642C159.725 127.793 159.235 128.897 158.364 129.711C157.493 130.524 156.312 130.982 155.08 130.982H32.6497C31.418 130.982 30.2367 130.524 29.3657 129.711C28.4948 128.897 28.0055 127.793 28.0055 126.642V116.638H28Z" fill="white" stroke="#2E353A" stroke-linecap="round" stroke-linejoin="round"/>
<path d="M152.471 44.4242H34V109.638H152.471V44.4242Z" fill="white" stroke="#2E353A" stroke-linecap="round" stroke-linejoin="round"/>
<path d="M95.8633 123.812C95.8633 123.363 95.7207 122.924 95.4535 122.55C95.1863 122.176 94.8065 121.885 94.3622 121.713C93.9179 121.541 93.429 121.496 92.9573 121.584C92.4856 121.672 92.0523 121.888 91.7122 122.206C91.3721 122.523 91.1405 122.928 91.0467 123.369C90.9529 123.81 91.0011 124.267 91.1851 124.682C91.3691 125.097 91.6808 125.452 92.0807 125.701C92.4806 125.951 92.9507 126.084 93.4317 126.084C94.0766 126.084 94.6951 125.845 95.1511 125.419C95.6071 124.993 95.8633 124.415 95.8633 123.812Z" fill="#2E353A" stroke="#2E353A" stroke-linecap="round" stroke-linejoin="round"/>
<path d="M114.614 149.142H72V151H114.614V149.142Z" fill="white" stroke="#2E353A" stroke-linecap="round" stroke-linejoin="round"/>
<path d="M151.428 49.0194H35V54.7353H151.428V49.0194Z" fill="white" stroke="#2E353A" stroke-linecap="round" stroke-linejoin="round"/>
<path fill-rule="evenodd" clip-rule="evenodd" d="M86.1871 93.0314C86.1871 92.7081 86.3155 92.3981 86.5441 92.1696C86.7726 91.941 87.0826 91.8126 87.4058 91.8126H109.343C109.667 91.8126 109.977 91.941 110.205 92.1696C110.434 92.3981 110.562 92.7081 110.562 93.0314C110.562 93.3546 110.434 93.6646 110.205 93.8931C109.977 94.1217 109.667 94.2501 109.343 94.2501H87.4058C87.0826 94.2501 86.7726 94.1217 86.5441 93.8931C86.3155 93.6646 86.1871 93.3546 86.1871 93.0314ZM86.1871 83.2814C86.1871 82.9581 86.3155 82.6481 86.5441 82.4196C86.7726 82.191 87.0826 82.0626 87.4058 82.0626H109.343C109.667 82.0626 109.977 82.191 110.205 82.4196C110.434 82.6481 110.562 82.9581 110.562 83.2814C110.562 83.6046 110.434 83.9146 110.205 84.1431C109.977 84.3717 109.667 84.5001 109.343 84.5001H87.4058C87.0826 84.5001 86.7726 84.3717 86.5441 84.1431C86.3155 83.9146 86.1871 83.6046 86.1871 83.2814ZM86.1871 73.5314C86.1871 73.2081 86.3155 72.8981 86.5441 72.6696C86.7726 72.441 87.0826 72.3126 87.4058 72.3126H109.343C109.667 72.3126 109.977 72.441 110.205 72.6696C110.434 72.8981 110.562 73.2081 110.562 73.5314C110.562 73.8546 110.434 74.1646 110.205 74.3931C109.977 74.6217 109.667 74.7501 109.343 74.7501H87.4058C87.0826 74.7501 86.7726 74.6217 86.5441 74.3931C86.3155 74.1646 86.1871 73.8546 86.1871 73.5314ZM83.3937 70.231C83.5072 70.3442 83.5973 70.4787 83.6587 70.6267C83.7201 70.7748 83.7518 70.9335 83.7518 71.0939C83.7518 71.2542 83.7201 71.4129 83.6587 71.561C83.5973 71.709 83.5072 71.8435 83.3937 71.9567L79.7375 75.613C79.6243 75.7265 79.4898 75.8165 79.3417 75.878C79.1936 75.9394 79.0349 75.971 78.8746 75.971C78.7143 75.971 78.5555 75.9394 78.4075 75.878C78.2594 75.8165 78.1249 75.7265 78.0117 75.613L76.793 74.3942C76.6796 74.2809 76.5898 74.1464 76.5284 73.9983C76.4671 73.8503 76.4355 73.6916 76.4355 73.5314C76.4355 73.3711 76.4671 73.2124 76.5284 73.0644C76.5898 72.9163 76.6796 72.7818 76.793 72.6685C76.9063 72.5552 77.0408 72.4653 77.1889 72.404C77.3369 72.3426 77.4956 72.3111 77.6558 72.3111C77.8161 72.3111 77.9748 72.3426 78.1228 72.404C78.2709 72.4653 78.4054 72.5552 78.5187 72.6685L78.8746 73.0268L81.668 70.231C81.7812 70.1175 81.9157 70.0274 82.0637 69.966C82.2118 69.9046 82.3705 69.8729 82.5308 69.8729C82.6911 69.8729 82.8499 69.9046 82.9979 69.966C83.146 70.0274 83.2805 70.1175 83.3937 70.231ZM83.3937 79.981C83.5072 80.0942 83.5973 80.2287 83.6587 80.3767C83.7201 80.5248 83.7518 80.6835 83.7518 80.8439C83.7518 81.0042 83.7201 81.1629 83.6587 81.311C83.5973 81.459 83.5072 81.5935 83.3937 81.7067L79.7375 85.363C79.6243 85.4765 79.4898 85.5665 79.3417 85.628C79.1936 85.6894 79.0349 85.721 78.8746 85.721C78.7143 85.721 78.5555 85.6894 78.4075 85.628C78.2594 85.5665 78.1249 85.4765 78.0117 85.363L76.793 84.1442C76.5641 83.9154 76.4355 83.605 76.4355 83.2814C76.4355 82.9577 76.5641 82.6473 76.793 82.4185C77.0218 82.1896 77.3322 82.0611 77.6558 82.0611C77.9795 82.0611 78.2899 82.1896 78.5187 82.4185L78.8746 82.7768L81.668 79.981C81.7812 79.8675 81.9157 79.7774 82.0637 79.716C82.2118 79.6546 82.3705 79.6229 82.5308 79.6229C82.6911 79.6229 82.8499 79.6546 82.9979 79.716C83.146 79.7774 83.2805 79.8675 83.3937 79.981ZM83.3937 89.731C83.5072 89.8442 83.5973 89.9787 83.6587 90.1267C83.7201 90.2748 83.7518 90.4335 83.7518 90.5939C83.7518 90.7542 83.7201 90.9129 83.6587 91.061C83.5973 91.209 83.5072 91.3435 83.3937 91.4567L79.7375 95.113C79.6243 95.2265 79.4898 95.3165 79.3417 95.378C79.1936 95.4394 79.0349 95.471 78.8746 95.471C78.7143 95.471 78.5555 95.4394 78.4075 95.378C78.2594 95.3165 78.1249 95.2265 78.0117 95.113L76.793 93.8942C76.5641 93.6654 76.4355 93.355 76.4355 93.0314C76.4355 92.7077 76.5641 92.3973 76.793 92.1685C77.0218 91.9396 77.3322 91.8111 77.6558 91.8111C77.9795 91.8111 78.2899 91.9396 78.5187 92.1685L78.8746 92.5268L81.668 89.731C81.7812 89.6175 81.9157 89.5274 82.0637 89.466C82.2118 89.4046 82.3705 89.3729 82.5308 89.3729C82.6911 89.3729 82.8499 89.4046 82.9979 89.466C83.146 89.5274 83.2805 89.6175 83.3937 89.731Z" fill="#25AAE3"/>
<defs>
<linearGradient id="paint0_linear" x1="98.5" y1="-2" x2="98.5" y2="143.553" gradientUnits="userSpaceOnUse">
<stop stop-color="#25AAE3"/>
<stop offset="1" stop-color="white" stop-opacity="0"/>
</linearGradient>
</defs>
</svg>
