<svg width="197" height="154" viewBox="0 0 197 154" fill="none" xmlns="http://www.w3.org/2000/svg">
<g opacity="0.7">
<path d="M13.1591 105.748C38.4832 132.869 64.0537 136.303 99.9971 142.73C135.94 149.157 162.332 144.715 181.78 128.335C204.234 109.401 203.347 66.0282 168.987 50.5845C158.252 45.7488 145.47 44.2852 136.066 37.4845C118.108 24.5073 103.584 4.31487 74.7551 0.523032C45.926 -3.26881 26.4893 14.8 26.4893 14.8C2.8137 39.0248 -12.165 78.6062 13.1591 105.748Z" fill="#DDF5FF"/>
<path d="M13.1591 105.748C38.4832 132.869 64.0537 136.303 99.9971 142.73C135.94 149.157 162.332 144.715 181.78 128.335C204.234 109.401 203.347 66.0282 168.987 50.5845C158.252 45.7488 145.47 44.2852 136.066 37.4845C118.108 24.5073 103.584 4.31487 74.7551 0.523032C45.926 -3.26881 26.4893 14.8 26.4893 14.8C2.8137 39.0248 -12.165 78.6062 13.1591 105.748Z" fill="url(#paint0_linear)"/>
</g>
<path d="M110.249 140.105V129.707H77.4766V140.105C77.4713 143.492 76.2442 146.778 73.9935 149.433L72.5586 151.122H115.167L113.732 149.433C111.481 146.778 110.254 143.492 110.249 140.105Z" fill="white" stroke="#2E353A" stroke-linecap="round" stroke-linejoin="round"/>
<path d="M75.4609 147.386H112.264C110.943 145.158 110.249 142.652 110.249 140.105V129.707H77.4764V140.105C77.4757 142.652 76.7822 145.158 75.4609 147.386Z" fill="#25AAE3"/>
<path d="M155.075 40.6776H32.6442C30.0793 40.6776 28 42.6204 28 45.017V128.647C28 131.044 30.0793 132.987 32.6442 132.987H155.075C157.64 132.987 159.719 131.044 159.719 128.647V45.017C159.719 42.6204 157.64 40.6776 155.075 40.6776Z" stroke="#2E353A" stroke-linecap="round" stroke-linejoin="round"/>
<path d="M28 118.638H159.725V128.642C159.725 129.793 159.235 130.897 158.364 131.711C157.493 132.524 156.312 132.982 155.08 132.982H32.6497C31.418 132.982 30.2367 132.524 29.3657 131.711C28.4948 130.897 28.0055 129.793 28.0055 128.642V118.638H28Z" fill="white" stroke="#2E353A" stroke-linecap="round" stroke-linejoin="round"/>
<path d="M153.098 46.4242H34.627V111.638H153.098V46.4242Z" fill="white" stroke="#2E353A" stroke-linecap="round" stroke-linejoin="round"/>
<path d="M96.294 125.812C96.294 125.363 96.1514 124.924 95.8842 124.55C95.617 124.176 95.2372 123.885 94.7929 123.713C94.3485 123.541 93.8596 123.496 93.3879 123.584C92.9162 123.672 92.483 123.888 92.1429 124.206C91.8028 124.523 91.5712 124.928 91.4774 125.369C91.3836 125.81 91.4317 126.267 91.6158 126.682C91.7998 127.097 92.1115 127.452 92.5114 127.701C92.9112 127.951 93.3814 128.084 93.8623 128.084C94.5072 128.084 95.1257 127.845 95.5818 127.419C96.0378 126.993 96.294 126.415 96.294 125.812Z" fill="#2E353A" stroke="#2E353A" stroke-linecap="round" stroke-linejoin="round"/>
<path d="M115.173 151.142H72.5586V153H115.173V151.142Z" fill="white" stroke="#2E353A" stroke-linecap="round" stroke-linejoin="round"/>
<path d="M151.986 51.0194H35.5576V56.7353H151.986V51.0194Z" fill="white" stroke="#2E353A" stroke-linecap="round" stroke-linejoin="round"/>
<path d="M114.543 71.6969L108.303 65.4569C108.158 65.3121 107.986 65.1972 107.797 65.1188C107.608 65.0404 107.405 65 107.2 65C106.995 65 106.792 65.0404 106.603 65.1188C106.414 65.1972 106.242 65.3121 106.097 65.4569L87.3769 84.1769C87.232 84.3218 87.1171 84.4938 87.0387 84.683C86.9603 84.8723 86.92 85.0752 86.92 85.28V91.52C86.92 91.9338 87.0843 92.3305 87.3769 92.6231C87.6695 92.9157 88.0662 93.08 88.48 93.08H94.72C94.9248 93.08 95.1277 93.0397 95.317 92.9613C95.5062 92.8829 95.6782 92.768 95.8231 92.6231L114.543 73.9032C114.688 73.7583 114.803 73.5863 114.881 73.397C114.96 73.2078 115 73.0049 115 72.8C115 72.5952 114.96 72.3923 114.881 72.203C114.803 72.0138 114.688 71.8418 114.543 71.6969ZM94.0739 89.96H90.04V85.9263L102.52 73.4463L106.554 77.48L94.0739 89.96ZM108.76 75.2738L104.726 71.24L107.2 68.7663L111.234 72.8L108.76 75.2738ZM113.44 83.72V100.88C113.439 101.707 113.11 102.5 112.525 103.085C111.94 103.67 111.147 103.999 110.32 104H79.12C78.2928 103.999 77.4998 103.67 76.9149 103.085C76.3299 102.5 76.0009 101.707 76 100.88V69.6801C76.0009 68.8529 76.3299 68.0598 76.9149 67.4749C77.4998 66.89 78.2928 66.561 79.12 66.5601H96.28C96.6937 66.5601 97.0905 66.7244 97.3831 67.017C97.6756 67.3095 97.84 67.7063 97.84 68.1201C97.84 68.5338 97.6756 68.9306 97.3831 69.2231C97.0905 69.5157 96.6937 69.6801 96.28 69.6801H79.12V100.88H110.32V83.72C110.32 83.3063 110.484 82.9095 110.777 82.6169C111.069 82.3244 111.466 82.16 111.88 82.16C112.294 82.16 112.69 82.3244 112.983 82.6169C113.276 82.9095 113.44 83.3063 113.44 83.72Z" fill="#25AAE3"/>
<defs>
<linearGradient id="paint0_linear" x1="98.5" y1="0" x2="98.5" y2="145.553" gradientUnits="userSpaceOnUse">
<stop stop-color="#25AAE3"/>
<stop offset="1" stop-color="white" stop-opacity="0"/>
</linearGradient>
</defs>
</svg>
