<svg width="207" height="154" viewBox="0 0 207 154" fill="none" xmlns="http://www.w3.org/2000/svg">
<g opacity="0.7">
<path d="M23.1591 105.748C48.4832 132.869 74.0537 136.303 109.997 142.73C145.94 149.157 172.332 144.715 191.78 128.335C214.234 109.401 213.347 66.0282 178.987 50.5845C168.252 45.7488 155.47 44.2852 146.066 37.4845C128.108 24.5073 113.584 4.31487 84.7551 0.523032C55.926 -3.26881 36.4893 14.8 36.4893 14.8C12.8137 39.0248 -2.16498 78.6062 23.1591 105.748Z" fill="#DDF5FF"/>
<path d="M23.1591 105.748C48.4832 132.869 74.0537 136.303 109.997 142.73C145.94 149.157 172.332 144.715 191.78 128.335C214.234 109.401 213.347 66.0282 178.987 50.5845C168.252 45.7488 155.47 44.2852 146.066 37.4845C128.108 24.5073 113.584 4.31487 84.7551 0.523032C55.926 -3.26881 36.4893 14.8 36.4893 14.8C12.8137 39.0248 -2.16498 78.6062 23.1591 105.748Z" fill="url(#paint0_linear)"/>
</g>
<path d="M124.249 140.105V129.707H91.4766V140.105C91.4713 143.492 90.2442 146.778 87.9935 149.433L86.5586 151.122H129.167L127.732 149.433C125.481 146.778 124.254 143.492 124.249 140.105Z" fill="white" stroke="#2E353A" stroke-linecap="round" stroke-linejoin="round"/>
<path d="M89.4609 147.386H126.264C124.943 145.158 124.249 142.652 124.249 140.105V129.707H91.4764V140.105C91.4757 142.652 90.7822 145.158 89.4609 147.386Z" fill="#25AAE3"/>
<path d="M169.075 40.6776H46.6442C44.0793 40.6776 42 42.6204 42 45.017V128.647C42 131.044 44.0793 132.987 46.6442 132.987H169.075C171.64 132.987 173.719 131.044 173.719 128.647V45.017C173.719 42.6204 171.64 40.6776 169.075 40.6776Z" stroke="#2E353A" stroke-linecap="round" stroke-linejoin="round"/>
<path d="M42 118.638H173.725V128.642C173.725 129.793 173.235 130.897 172.364 131.711C171.493 132.524 170.312 132.982 169.08 132.982H46.6497C45.418 132.982 44.2367 132.524 43.3657 131.711C42.4948 130.897 42.0055 129.793 42.0055 128.642V118.638H42Z" fill="white" stroke="#2E353A" stroke-linecap="round" stroke-linejoin="round"/>
<path d="M167.471 46.4242H49V111.638H167.471V46.4242Z" fill="white" stroke="#2E353A" stroke-linecap="round" stroke-linejoin="round"/>
<path d="M110.294 125.812C110.294 125.363 110.151 124.924 109.884 124.55C109.617 124.176 109.237 123.885 108.793 123.713C108.349 123.541 107.86 123.496 107.388 123.584C106.916 123.672 106.483 123.888 106.143 124.206C105.803 124.523 105.571 124.928 105.477 125.369C105.384 125.81 105.432 126.267 105.616 126.682C105.8 127.097 106.111 127.452 106.511 127.701C106.911 127.951 107.381 128.084 107.862 128.084C108.507 128.084 109.126 127.845 109.582 127.419C110.038 126.993 110.294 126.415 110.294 125.812Z" fill="#2E353A" stroke="#2E353A" stroke-linecap="round" stroke-linejoin="round"/>
<path d="M129.173 151.142H86.5586V153H129.173V151.142Z" fill="white" stroke="#2E353A" stroke-linecap="round" stroke-linejoin="round"/>
<path d="M165.986 51.0194H49.5576V56.7353H165.986V51.0194Z" fill="white" stroke="#2E353A" stroke-linecap="round" stroke-linejoin="round"/>
<path d="M120.5 70.25H94.5C92.7125 70.25 91.25 71.7125 91.25 73.5V102.75L97.75 96.25H120.5C122.288 96.25 123.75 94.7875 123.75 93V73.5C123.75 71.7125 122.288 70.25 120.5 70.25ZM120.5 93H96.4012L94.5 94.9013V73.5H120.5V93ZM105.875 75.125H109.125V84.875H105.875V75.125ZM105.875 88.125H109.125V91.375H105.875V88.125Z" fill="#25AAE3"/>
<defs>
<linearGradient id="paint0_linear" x1="108.5" y1="0" x2="108.5" y2="145.553" gradientUnits="userSpaceOnUse">
<stop stop-color="#25AAE3"/>
<stop offset="1" stop-color="white" stop-opacity="0"/>
</linearGradient>
</defs>
</svg>
