<svg width="142" height="79" viewBox="0 0 142 79" fill="none" xmlns="http://www.w3.org/2000/svg">
<path d="M134.998 6.03186H7.49682C3.90872 6.03186 1 8.27128 1 11.0337V72.8966C1 75.6591 3.90872 77.8985 7.49682 77.8985H134.998C138.586 77.8985 141.495 75.6591 141.495 72.8966V11.0337C141.495 8.27128 138.586 6.03186 134.998 6.03186Z" fill="#25AAE3" stroke="#263238" stroke-miterlimit="10" stroke-linecap="round"/>
<path opacity="0.7" d="M134.998 6.03186H7.49682C3.90872 6.03186 1 8.27128 1 11.0337V72.8966C1 75.6591 3.90872 77.8985 7.49682 77.8985H134.998C138.586 77.8985 141.495 75.6591 141.495 72.8966V11.0337C141.495 8.27128 138.586 6.03186 134.998 6.03186Z" fill="#25AAE3" stroke="#263238" stroke-miterlimit="10" stroke-linecap="round"/>
<path d="M60.2564 46.21H43.8193V53.3096H60.2564V46.21Z" fill="white"/>
<path d="M60.2564 54.5923H43.8193V61.6918H60.2564V54.5923Z" fill="white"/>
<path d="M78.3658 46.21H61.9287V53.3096H78.3658V46.21Z" fill="white"/>
<path d="M96.48 37.8234H80.043V44.9229H96.48V37.8234Z" fill="white"/>
<path d="M96.48 29.437H80.043V36.5366H96.48V29.437Z" fill="white"/>
<path d="M96.48 13.938H80.043V19.7635H96.48V13.938Z" fill="#263238"/>
<path d="M78.3658 13.938H61.9287V19.7635H78.3658V13.938Z" fill="#263238"/>
<path d="M78.3658 54.5923H61.9287V61.6918H78.3658V54.5923Z" fill="white"/>
<path d="M78.3658 21.0504H61.9287V28.15H78.3658V21.0504Z" fill="white"/>
<path d="M78.3658 29.437H61.9287V36.5366H78.3658V29.437Z" fill="white"/>
<path d="M78.3658 37.8234H61.9287V44.9229H78.3658V37.8234Z" fill="white"/>
<path d="M96.48 54.5923H80.043V61.6918H96.48V54.5923Z" fill="white"/>
<path d="M24.0343 21.0504H6.51074V28.15H24.0343V21.0504Z" fill="white"/>
<path d="M24.0343 37.8234H6.51074V44.9229H24.0343V37.8234Z" fill="white"/>
<path d="M24.0343 46.21H6.51074V53.3096H24.0343V46.21Z" fill="white"/>
<path d="M24.0343 29.437H6.51074V36.5366H24.0343V29.437Z" fill="white"/>
<path d="M133.789 13.938H116.266V19.7635H133.789V13.938Z" fill="#263238"/>
<path d="M24.0343 54.5923H6.51074V61.6918H24.0343V54.5923Z" fill="white"/>
<path d="M114.588 21.0504H98.1514V28.15H114.588V21.0504Z" fill="white"/>
<path d="M96.48 46.21H80.043V53.3096H96.48V46.21Z" fill="white"/>
<path d="M114.588 46.21H98.1514V53.3096H114.588V46.21Z" fill="white"/>
<path d="M114.588 29.437H98.1514V36.5366H114.588V29.437Z" fill="white"/>
<path d="M114.588 37.8234H98.1514V44.9229H114.588V37.8234Z" fill="white"/>
<path d="M114.588 54.5923H98.1514V61.6918H114.588V54.5923Z" fill="white"/>
<path d="M96.48 21.0504H80.043V28.15H96.48V21.0504Z" fill="white"/>
<path d="M133.789 54.5923H116.266V61.6918H133.789V54.5923Z" fill="white"/>
<path d="M114.588 13.938H98.1514V19.7635H114.588V13.938Z" fill="#263238"/>
<path d="M133.789 46.21H116.266V53.3096H133.789V46.21Z" fill="white"/>
<path d="M114.588 62.9786H98.1514V70.4815H114.588V62.9786Z" fill="white"/>
<path d="M133.789 37.8234H116.266V44.9229H133.789V37.8234Z" fill="white"/>
<path d="M78.3658 62.9786H61.9287V70.4815H78.3658V62.9786Z" fill="white"/>
<path d="M96.48 62.9786H80.043V70.4815H96.48V62.9786Z" fill="white"/>
<path d="M133.789 29.437H116.266V36.5366H133.789V29.437Z" fill="white"/>
<path d="M133.789 62.9786H116.266V70.4815H133.789V62.9786Z" fill="white"/>
<path d="M24.0343 62.9786H6.51074V70.4815H24.0343V62.9786Z" fill="white"/>
<path d="M133.789 21.0504H116.266V28.15H133.789V21.0504Z" fill="white"/>
<path d="M24.0343 13.938H6.51074V19.7635H24.0343V13.938Z" fill="#263238"/>
<path d="M42.1431 13.938H25.7061V19.7635H42.1431V13.938Z" fill="#263238"/>
<path d="M42.1431 46.21H25.7061V53.3096H42.1431V46.21Z" fill="white"/>
<path d="M60.2564 13.938H43.8193V19.7635H60.2564V13.938Z" fill="#263238"/>
<path d="M60.2564 29.437H43.8193V36.5366H60.2564V29.437Z" fill="white"/>
<path d="M42.1431 54.5923H25.7061V61.6918H42.1431V54.5923Z" fill="white"/>
<path d="M60.2564 21.0504H43.8193V28.15H60.2564V21.0504Z" fill="white"/>
<path d="M42.1431 21.0504H25.7061V28.15H42.1431V21.0504Z" fill="white"/>
<path d="M60.2564 37.8234H43.8193V44.9229H60.2564V37.8234Z" fill="white"/>
<path d="M42.1431 37.8234H25.7061V44.9229H42.1431V37.8234Z" fill="white"/>
<path d="M42.1431 62.9786H25.7061V70.4815H42.1431V62.9786Z" fill="white"/>
<path d="M42.1431 29.437H25.7061V36.5366H42.1431V29.437Z" fill="white"/>
<path d="M60.2564 62.9786H43.8193V70.4815H60.2564V62.9786Z" fill="white"/>
<path d="M14.244 10.0214C15.5519 10.0214 16.6121 9.20518 16.6121 8.19828C16.6121 7.19138 15.5519 6.37512 14.244 6.37512C12.9362 6.37512 11.876 7.19138 11.876 8.19828C11.876 9.20518 12.9362 10.0214 14.244 10.0214Z" fill="white" stroke="#263238" stroke-miterlimit="10" stroke-linecap="round"/>
<path d="M24.6301 8.19819C24.6312 7.83639 24.4927 7.48248 24.2324 7.1813C23.972 6.88012 23.6013 6.64523 23.1674 6.50638C22.7334 6.36753 22.2557 6.33099 21.7947 6.40136C21.3338 6.47174 20.9103 6.64587 20.578 6.9017C20.2457 7.15753 20.0196 7.48355 19.9282 7.83844C19.8367 8.19332 19.8842 8.56112 20.0646 8.89521C20.2449 9.22931 20.55 9.51468 20.9412 9.71515C21.3324 9.91563 21.7921 10.0222 22.262 10.0213C22.89 10.0213 23.4924 9.82926 23.9365 9.48735C24.3806 9.14545 24.6301 8.68172 24.6301 8.19819Z" fill="white" stroke="#263238" stroke-miterlimit="10" stroke-linecap="round"/>
<path d="M14.2894 9.38652C13.9599 9.38652 13.6438 9.28573 13.4108 9.10633C13.1778 8.92693 13.0469 8.68361 13.0469 8.4299V1.96091C13.0462 1.83492 13.0778 1.71007 13.1399 1.59351C13.202 1.47695 13.2934 1.37099 13.4088 1.2817C13.5243 1.19242 13.6615 1.12157 13.8126 1.07323C13.9637 1.02488 14.1258 0.999999 14.2894 1C14.6204 1 14.9379 1.10124 15.172 1.28144C15.406 1.46165 15.5375 1.70606 15.5375 1.96091V8.4299C15.5375 8.55588 15.5052 8.68063 15.4424 8.79698C15.3796 8.91332 15.2876 9.01897 15.1716 9.10785C15.0556 9.19674 14.918 9.26711 14.7666 9.31494C14.6152 9.36276 14.4531 9.38708 14.2894 9.38652Z" fill="white" stroke="#263238" stroke-miterlimit="10" stroke-linecap="round"/>
<path d="M22.3793 9.38652C22.0497 9.38652 21.7337 9.28573 21.5007 9.10633C21.2676 8.92693 21.1367 8.68361 21.1367 8.4299V1.96091C21.136 1.83492 21.1676 1.71007 21.2297 1.59351C21.2918 1.47695 21.3832 1.37099 21.4987 1.2817C21.6141 1.19242 21.7514 1.12157 21.9025 1.07323C22.0536 1.02488 22.2156 0.999999 22.3793 1C22.7103 1 23.0277 1.10124 23.2618 1.28144C23.4959 1.46165 23.6274 1.70606 23.6274 1.96091V8.4299C23.6274 8.55588 23.595 8.68063 23.5323 8.79698C23.4695 8.91332 23.3774 9.01897 23.2615 9.10785C23.1455 9.19674 23.0079 9.26711 22.8565 9.31494C22.7051 9.36276 22.5429 9.38708 22.3793 9.38652Z" fill="white" stroke="#263238" stroke-miterlimit="10" stroke-linecap="round"/>
<path d="M123.543 8.19819C123.544 7.83639 123.406 7.48248 123.145 7.1813C122.885 6.88012 122.514 6.64523 122.08 6.50638C121.646 6.36753 121.169 6.33099 120.708 6.40136C120.247 6.47174 119.823 6.64587 119.491 6.9017C119.159 7.15753 118.933 7.48355 118.841 7.83844C118.75 8.19332 118.797 8.56112 118.978 8.89521C119.158 9.22931 119.463 9.51468 119.854 9.71515C120.245 9.91563 120.705 10.0222 121.175 10.0213C121.803 10.0213 122.405 9.82926 122.85 9.48735C123.294 9.14545 123.543 8.68172 123.543 8.19819Z" fill="white" stroke="#263238" stroke-miterlimit="10" stroke-linecap="round"/>
<path d="M129.187 10.0214C130.495 10.0214 131.555 9.20518 131.555 8.19828C131.555 7.19138 130.495 6.37512 129.187 6.37512C127.88 6.37512 126.819 7.19138 126.819 8.19828C126.819 9.20518 127.88 10.0214 129.187 10.0214Z" fill="white" stroke="#263238" stroke-miterlimit="10" stroke-linecap="round"/>
<path d="M121.213 9.38652C120.884 9.38652 120.568 9.28573 120.335 9.10633C120.102 8.92693 119.971 8.68361 119.971 8.4299V1.96091C119.97 1.83492 120.002 1.71007 120.064 1.59351C120.126 1.47695 120.217 1.37099 120.333 1.2817C120.448 1.19242 120.585 1.12157 120.736 1.07323C120.888 1.02488 121.05 0.999999 121.213 1C121.544 1 121.862 1.10124 122.096 1.28144C122.33 1.46165 122.461 1.70606 122.461 1.96091V8.4299C122.461 8.55588 122.429 8.68063 122.366 8.79698C122.303 8.91332 122.211 9.01897 122.095 9.10785C121.979 9.19674 121.842 9.26711 121.69 9.31494C121.539 9.36276 121.377 9.38708 121.213 9.38652Z" fill="white" stroke="#263238" stroke-miterlimit="10" stroke-linecap="round"/>
<path d="M129.31 9.38651C129.145 9.38879 128.981 9.36573 128.827 9.31868C128.674 9.27163 128.534 9.20152 128.417 9.11247C128.299 9.02341 128.205 8.91718 128.142 8.79998C128.078 8.68279 128.045 8.55697 128.045 8.42989V1.96091C128.045 1.70606 128.176 1.46165 128.41 1.28144C128.645 1.10124 128.962 1 129.293 1C129.457 0.999999 129.619 1.02488 129.77 1.07323C129.921 1.12157 130.058 1.19242 130.174 1.2817C130.289 1.37099 130.38 1.47695 130.443 1.59351C130.505 1.71007 130.536 1.83492 130.536 1.96091V8.42989C130.536 8.68139 130.407 8.92278 130.178 9.10182C129.948 9.28085 129.636 9.38313 129.31 9.38651Z" fill="white" stroke="#263238" stroke-miterlimit="10" stroke-linecap="round"/>
<path d="M67.7128 10.0214C69.0206 10.0214 70.0808 9.20518 70.0808 8.19828C70.0808 7.19138 69.0206 6.37512 67.7128 6.37512C66.4049 6.37512 65.3447 7.19138 65.3447 8.19828C65.3447 9.20518 66.4049 10.0214 67.7128 10.0214Z" fill="white" stroke="#263238" stroke-miterlimit="10" stroke-linecap="round"/>
<path d="M75.7245 10.0214C77.0323 10.0214 78.0926 9.20518 78.0926 8.19828C78.0926 7.19138 77.0323 6.37512 75.7245 6.37512C74.4167 6.37512 73.3564 7.19138 73.3564 8.19828C73.3564 9.20518 74.4167 10.0214 75.7245 10.0214Z" fill="white" stroke="#263238" stroke-miterlimit="10" stroke-linecap="round"/>
<path d="M67.7513 9.38652C67.4218 9.38652 67.1058 9.28573 66.8727 9.10633C66.6397 8.92693 66.5088 8.68361 66.5088 8.4299V1.96091C66.5081 1.83492 66.5397 1.71007 66.6018 1.59351C66.6639 1.47695 66.7553 1.37099 66.8708 1.2817C66.9862 1.19242 67.1234 1.12157 67.2745 1.07323C67.4257 1.02488 67.5877 0.999999 67.7513 1C68.0823 1 68.3998 1.10124 68.6339 1.28144C68.8679 1.46165 68.9994 1.70606 68.9994 1.96091V8.4299C68.9994 8.55588 68.9671 8.68063 68.9043 8.79698C68.8415 8.91332 68.7495 9.01897 68.6335 9.10785C68.5176 9.19674 68.3799 9.26711 68.2285 9.31494C68.0771 9.36276 67.915 9.38708 67.7513 9.38652Z" fill="white" stroke="#263238" stroke-miterlimit="10" stroke-linecap="round"/>
<path d="M75.8422 9.38652C75.5126 9.38652 75.1966 9.28573 74.9636 9.10633C74.7305 8.92693 74.5996 8.68361 74.5996 8.4299V1.96091C74.5989 1.83492 74.6305 1.71007 74.6926 1.59351C74.7547 1.47695 74.8461 1.37099 74.9616 1.2817C75.077 1.19242 75.2143 1.12157 75.3654 1.07323C75.5165 1.02488 75.6785 0.999999 75.8422 1C76.0061 1 76.1684 1.02485 76.3198 1.07314C76.4712 1.12144 76.6088 1.19222 76.7247 1.28144C76.8406 1.37067 76.9325 1.4766 76.9952 1.59319C77.058 1.70977 77.0903 1.83472 77.0903 1.96091V8.4299C77.0903 8.55588 77.0579 8.68063 76.9951 8.79698C76.9324 8.91332 76.8403 9.01897 76.7244 9.10785C76.6084 9.19674 76.4708 9.26711 76.3194 9.31494C76.168 9.36276 76.0058 9.38708 75.8422 9.38652Z" fill="white" stroke="#263238" stroke-miterlimit="10" stroke-linecap="round"/>
<path d="M17.8886 30.0547L9.59766 35.6829" stroke="#263238" stroke-width="2" stroke-linecap="round" stroke-linejoin="round"/>
<path d="M12.1494 30.0547L17.8885 35.3054" stroke="#263238" stroke-width="2" stroke-linecap="round" stroke-linejoin="round"/>
<path d="M109.652 22.0498L101.361 27.6737" stroke="#263238" stroke-width="2" stroke-linecap="round" stroke-linejoin="round"/>
<path d="M103.913 22.0498L109.652 27.3005" stroke="#263238" stroke-width="2" stroke-linecap="round" stroke-linejoin="round"/>
<path d="M55.32 22.0498L47.0234 27.6737" stroke="#263238" stroke-width="2" stroke-linecap="round" stroke-linejoin="round"/>
<path d="M49.5762 22.0498L55.3208 27.3005" stroke="#263238" stroke-width="2" stroke-linecap="round" stroke-linejoin="round"/>
<path d="M128.619 21.8914L120.322 27.5196" stroke="#263238" stroke-width="2" stroke-linecap="round" stroke-linejoin="round"/>
<path d="M122.874 21.8914L128.619 27.1421" stroke="#263238" stroke-width="2" stroke-linecap="round" stroke-linejoin="round"/>
</svg>
