<svg width="106" height="106" viewBox="0 0 106 106" fill="none" xmlns="http://www.w3.org/2000/svg">
<path d="M105.351 70.108C104.372 66.7301 102.622 63.6236 100.238 61.0315C97.4259 57.9535 94.1336 55.3482 90.4882 53.3161C86.2536 50.9252 81.7502 49.0415 77.0719 47.7042C71.924 46.2226 66.6428 45.2474 61.304 44.7927C55.7869 44.2905 50.2353 44.2905 44.7181 44.7927C39.377 45.2481 34.0934 46.2233 28.9429 47.7042C24.2623 49.0418 19.7566 50.9254 15.5193 53.3161C11.8729 55.3467 8.58036 57.9522 5.76937 61.0315C3.38573 63.6236 1.63601 66.7301 0.657022 70.108C-0.208591 73.2328 -0.208591 76.5329 0.657022 79.6577C1.63434 83.0342 3.38433 86.1387 5.76937 88.727C8.5798 91.8088 11.8724 94.4168 15.5193 96.4496C19.7489 98.8386 24.2474 100.72 28.921 102.054C34.0745 103.533 39.3603 104.508 44.7035 104.966C50.221 105.461 55.7719 105.461 61.2894 104.966C66.6326 104.508 71.9184 103.533 77.0719 102.054C81.7469 100.721 86.2458 98.8366 90.4736 96.4424C94.1257 94.4137 97.4234 91.8081 100.238 88.727C102.623 86.1387 104.373 83.0342 105.351 79.6577C106.216 76.5329 106.216 73.2328 105.351 70.108Z" fill="#37474F"/>
<path d="M0 70.1007H105.993V75.4869L0 75.1885V70.1007Z" fill="#37474F"/>
<path d="M44.7332 39.996L53.0152 70.1007L28.958 42.9366C34.1076 41.4458 39.3912 40.4609 44.7332 39.996Z" fill="#455A64"/>
<path d="M61.2901 39.996L53.0081 70.1007L44.7334 39.996C50.2409 39.4955 55.7826 39.4955 61.2901 39.996Z" fill="#455A64"/>
<path d="M77.0578 42.9366L53.0078 70.1007L61.2898 39.996C66.6296 40.4602 71.9108 41.4451 77.0578 42.9366Z" fill="#455A64"/>
<path d="M100.239 56.2639C102.622 58.8588 104.372 61.9676 105.351 65.3477L53.0225 70.1153L100.239 56.2639Z" fill="#455A64"/>
<path d="M105.351 65.3477C106.216 68.47 106.216 71.7677 105.351 74.89L53.0225 70.1152L105.351 65.3477Z" fill="#455A64"/>
<path d="M105.351 74.8901C104.372 78.2681 102.622 81.3747 100.239 83.9666L53.0225 70.1371L105.351 74.8901Z" fill="#455A64"/>
<path d="M100.238 83.9666C97.4215 87.0429 94.1271 89.648 90.4808 91.682L53 70.1152L100.238 83.9666Z" fill="#455A64"/>
<path d="M53.0078 70.1225L77.0723 97.2939C71.9188 98.7727 66.633 99.7478 61.2898 100.205L52.9932 70.1007L53.0078 70.1225Z" fill="#455A64"/>
<path d="M52.9935 70.1299L61.2901 100.205C55.7824 100.702 50.241 100.702 44.7334 100.205L52.9935 70.1299Z" fill="#455A64"/>
<path d="M52.9855 70.1226L44.7327 100.205C39.3895 99.7478 34.1037 98.7727 28.9502 97.2939L52.9855 70.1226Z" fill="#455A64"/>
<path d="M52.9857 70.1226L28.8847 97.2939C24.2245 95.9512 19.7388 94.0677 15.5195 91.6821L52.9857 70.1226Z" fill="#455A64"/>
<path d="M52.9789 70.1152L5.76273 83.9448C3.37889 81.3528 1.62914 78.2463 0.650391 74.8682L52.9789 70.1152Z" fill="#455A64"/>
<path d="M52.9785 70.1152L0.649998 74.89C-0.215364 71.7677 -0.215364 68.47 0.649998 65.3477L52.9785 70.1152Z" fill="#455A64"/>
<path d="M52.9789 70.108L0.650391 65.3404C1.62933 61.9603 3.37899 58.8514 5.76273 56.2566L52.9789 70.108Z" fill="#455A64"/>
<path d="M15.5195 48.5266L52.9784 70.0788L5.76953 56.2493C8.57943 53.1669 11.8721 50.5588 15.5195 48.5266Z" fill="#455A64"/>
<path d="M90.474 48.5267L53.0078 70.0789L77.0577 42.9148C81.7371 44.2491 86.2408 46.1329 90.474 48.5267Z" fill="#455A64"/>
<path d="M90.4736 48.5266C94.1259 50.5639 97.4234 53.1767 100.238 56.2639L53.0293 70.0934L90.4736 48.5266Z" fill="#455A64"/>
<path d="M52.9861 70.1079L15.52 91.682C11.8724 89.6498 8.57765 87.0446 5.7627 83.9666L52.9788 70.137L52.9861 70.1079Z" fill="#455A64"/>
<path d="M28.9285 42.9366L52.9857 70.1008L15.5195 48.5267C19.7518 46.1418 24.2529 44.2653 28.9285 42.9366Z" fill="#455A64"/>
<path d="M53.0078 70.1226L90.474 91.6821C86.2432 94.0703 81.7451 95.9539 77.0723 97.2939L53.0078 70.1226Z" fill="#455A64"/>
<path d="M67.0887 51.4381L73.1285 44.6106C73.1285 36.6041 63.3128 36.4076 58.9746 36.0218C54.6365 35.636 47.1943 33.154 47.1943 42.2669L49.2685 49.8076C55.2575 49.4242 61.2698 49.9742 67.0887 51.4381Z" fill="#25AAE3"/>
<path opacity="0.6" d="M67.0887 51.4381L73.1285 44.6106C73.1285 36.6041 63.3128 36.4076 58.9746 36.0218C54.6365 35.636 47.1943 33.154 47.1943 42.2669L49.2685 49.8076C55.2575 49.4242 61.2698 49.9742 67.0887 51.4381Z" fill="white"/>
<path d="M67.0887 40.7166L73.1285 33.8964C64.6713 31.7028 55.9095 30.911 47.1943 31.5527L49.2685 39.0643C55.2586 38.688 61.271 39.2454 67.0887 40.7166Z" fill="#25AAE3"/>
<path opacity="0.8" d="M67.0887 40.7166L73.1285 33.8964C64.6713 31.7028 55.9095 30.911 47.1943 31.5527L49.2685 39.0643C55.2586 38.688 61.271 39.2454 67.0887 40.7166Z" fill="white"/>
<path d="M49.2685 39.0935V49.8223L47.1943 42.2816V31.5527L49.2685 39.0935Z" fill="#25AAE3"/>
<path d="M73.1287 33.8964L67.0889 40.7165V51.4526L73.1287 44.6252V33.8964Z" fill="#25AAE3"/>
<g opacity="0.6">
<path opacity="0.6" d="M49.2685 39.0935V49.8223L47.1943 42.2816V31.5527L49.2685 39.0935Z" fill="white"/>
<path opacity="0.6" d="M73.1287 33.8965L67.0889 40.7166V51.4527L73.1287 44.6253V33.8965Z" fill="white"/>
</g>
<path d="M70.0391 41.5828V52.3116C72.5591 53.1224 74.9911 54.1831 77.2986 55.4778C79.3122 56.6173 81.162 58.0227 82.798 59.6558L94.6441 56.1838C92.2887 53.7878 89.6063 51.7344 86.6761 50.0843C83.4407 48.2355 79.9789 40.7384 70.0391 41.5828Z" fill="#25AAE3"/>
<path opacity="0.6" d="M70.0391 41.5828V52.3116C72.5591 53.1224 74.9911 54.1831 77.2986 55.4778C79.3122 56.6173 81.162 58.0227 82.798 59.6558L94.6441 56.1838C92.2887 53.7878 89.6063 51.7344 86.6761 50.0843C83.4407 48.2355 79.9789 40.7384 70.0391 41.5828Z" fill="black"/>
<path d="M76.0789 34.7699L70.0391 41.5828C72.5614 42.3873 74.9941 43.4483 77.2986 44.749C79.3122 45.8885 81.162 47.2938 82.798 48.927L94.6441 45.455C92.2926 43.0546 89.6096 41.0008 86.6761 39.3555C83.3184 37.4537 79.7657 35.9164 76.0789 34.7699Z" fill="#25AAE3"/>
<path opacity="0.3" d="M76.0789 34.7699L70.0391 41.5828C72.5614 42.3873 74.9941 43.4483 77.2986 44.749C79.3122 45.8885 81.162 47.2938 82.798 48.927L94.6441 45.455C92.2926 43.0546 89.6096 41.0008 86.6761 39.3555C83.3184 37.4537 79.7657 35.9164 76.0789 34.7699Z" fill="black"/>
<path d="M82.7979 48.927L94.6439 45.4478V56.1838L82.7979 59.6558V48.927Z" fill="#25AAE3"/>
<path opacity="0.6" d="M82.7979 48.927L94.6439 45.4478V56.1838L82.7979 59.6558V48.927Z" fill="black"/>
<path d="M100.589 58.4475H96.5865C96.4404 58.2583 96.3163 58.069 96.1702 57.8798L84.3096 50.6011V61.3372C86.8365 64.5762 87.7933 68.1136 87.136 71.5856L100.238 72.8011C100.46 71.7185 100.57 70.6161 100.567 69.5111L100.589 58.4475Z" fill="#25AAE3"/>
<path opacity="0.6" d="M100.589 58.4475H96.5865C96.4404 58.2583 96.3163 58.069 96.1702 57.8798L84.3096 50.6011V61.3372C86.8365 64.5762 87.7933 68.1136 87.136 71.5856L100.238 72.8011C100.46 71.7185 100.57 70.6161 100.567 69.5111L100.589 58.4475Z" fill="black"/>
<path d="M87.1291 60.9005L100.239 62.0723C101.305 57.0282 99.9538 51.8385 96.1634 47.151L84.3027 50.623C86.8297 53.862 87.823 57.4067 87.1291 60.9005Z" fill="#25AAE3"/>
<path opacity="0.3" d="M87.1291 60.9005L100.239 62.0723C101.305 57.0282 99.9538 51.8385 96.1634 47.151L84.3027 50.623C86.8297 53.862 87.823 57.4067 87.1291 60.9005Z" fill="black"/>
<path d="M100.238 62.0722V72.8083L87.1289 71.6073V60.8785L100.238 62.0722Z" fill="#25AAE3"/>
<path opacity="0.6" d="M100.238 62.0722V72.8083L87.1289 71.6073V60.8785L100.238 62.0722Z" fill="black"/>
<path d="M45.9966 50.128V39.3919C38.6932 36.0364 25.0944 39.4428 20.5371 49.4365L29.9146 54.8373C34.9515 52.3267 40.3975 50.7319 45.9966 50.128Z" fill="#25AAE3"/>
<path opacity="0.3" d="M45.9966 50.128V39.3919C38.6932 36.0364 25.0944 39.4428 20.5371 49.4365L29.9146 54.8373C34.9515 52.3267 40.3975 50.7319 45.9966 50.128Z" fill="black"/>
<path d="M45.9961 39.3919L43.9147 31.8293C35.0849 32.8192 27.0001 35.2431 20.5439 38.7077L29.9214 44.1012C34.9561 41.5914 40.3996 39.9967 45.9961 39.3919Z" fill="#25AAE3"/>
<path opacity="0.1" d="M45.9961 39.3919L43.9147 31.8293C35.0849 32.8192 27.0001 35.2431 20.5439 38.7077L29.9214 44.1012C34.9561 41.5914 40.3996 39.9967 45.9961 39.3919Z" fill="black"/>
<path d="M29.9146 44.1012V54.8372L20.5371 49.4364V38.7076L29.9146 44.1012Z" fill="#263238"/>
<path d="M20.1059 45.455L18.1779 50.7757C11.8751 54.6625 7.89474 59.3427 6.25879 64.2413L19.4048 65.435C20.6099 62.0795 23.3559 58.8842 27.6065 56.191V45.455H20.1059Z" fill="#25AAE3"/>
<path opacity="0.3" d="M20.1059 45.455L18.1779 50.7757C11.8751 54.6625 7.89474 59.3427 6.25879 64.2413L19.4048 65.435C20.6099 62.0795 23.3559 58.8842 27.6065 56.191V45.455H20.1059Z" fill="black"/>
<path d="M27.5773 45.4551L18.1779 40.047C11.8751 43.9265 7.89474 48.614 6.25879 53.5053L19.4048 54.7063C20.5807 51.3508 23.3267 48.1482 27.5773 45.4551Z" fill="#25AAE3"/>
<path opacity="0.1" d="M27.5773 45.4551L18.1779 40.047C11.8751 43.9265 7.89474 48.614 6.25879 53.5053L19.4048 54.7063C20.5807 51.3508 23.3267 48.1482 27.5773 45.4551Z" fill="black"/>
<path d="M6.25879 53.5052V64.2413L19.3756 65.435V54.7062L6.25879 53.5052Z" fill="#263238"/>
<path d="M18.8571 67.3202V56.5841L14.9571 56.2347L5.4043 58.7168V69.4383C5.46548 73.6983 7.01509 77.8038 9.78631 81.0478L21.6469 77.5759C19.1711 74.3369 18.2071 70.7922 18.8571 67.3202Z" fill="#25AAE3"/>
<path opacity="0.3" d="M18.8571 67.3202V56.5841L14.9571 56.2347L5.4043 58.7168V69.4383C5.46548 73.6983 7.01509 77.8038 9.78631 81.0478L21.6469 77.5759C19.1711 74.3369 18.2071 70.7922 18.8571 67.3202Z" fill="black"/>
<path d="M9.83008 70.3191L21.6907 66.8398V77.5759L9.83008 81.0479V70.3191Z" fill="#263238"/>
<path d="M18.8647 56.5842L5.71872 55.3905C4.65243 60.4419 6.00355 65.6244 9.79399 70.3191L21.6546 66.8399C19.1715 63.6009 18.2074 60.0562 18.8647 56.5842Z" fill="#25AAE3"/>
<path opacity="0.1" d="M18.8647 56.5842L5.71872 55.3905C4.65243 60.4419 6.00355 65.6244 9.79399 70.3191L21.6546 66.8399C19.1715 63.6009 18.2074 60.0562 18.8647 56.5842Z" fill="black"/>
<path d="M32.8946 81.0333C27.3368 77.8379 24.5615 73.6527 24.5615 69.4674V58.7168H81.4327V69.4456C81.4327 73.6381 78.6574 77.8234 73.0996 81.0187C61.9985 87.424 44.003 87.424 32.8946 81.0333Z" fill="#37474F"/>
<path d="M53.0003 75.0939C68.7028 75.0939 81.4322 67.7682 81.4322 58.7314C81.4322 49.6946 68.7028 42.3689 53.0003 42.3689C37.2978 42.3689 24.5684 49.6946 24.5684 58.7314C24.5684 67.7682 37.2978 75.0939 53.0003 75.0939Z" fill="#455A64"/>
<path d="M29.9142 84.1049V82.7365L11.3418 72.015V82.7365C13.698 85.1348 16.383 87.1883 19.3171 88.8361C22.6747 90.7379 26.2275 92.2752 29.9142 93.4217L35.9468 86.6088C33.8721 85.9359 31.8548 85.0986 29.9142 84.1049Z" fill="#25AAE3"/>
<path opacity="0.3" d="M29.9142 84.1049V82.7365L11.3418 72.015V82.7365C13.698 85.1348 16.383 87.1883 19.3171 88.8361C22.6747 90.7379 26.2275 92.2752 29.9142 93.4217L35.9468 86.6088C33.8721 85.9359 31.8548 85.0986 29.9142 84.1049Z" fill="black"/>
<path d="M28.6653 72.7138C26.6494 71.5773 24.797 70.1744 23.1585 68.5431L11.3125 72.015C13.6705 74.4111 16.3553 76.4645 19.2878 78.1146C22.6469 80.0134 26.1993 81.5506 29.8849 82.7002L35.9175 75.88C33.3974 75.0755 30.9672 74.0145 28.6653 72.7138Z" fill="#25AAE3"/>
<path opacity="0.1" d="M28.6653 72.7138C26.6494 71.5773 24.797 70.1744 23.1585 68.5431L11.3125 72.015C13.6705 74.4111 16.3553 76.4645 19.2878 78.1146C22.6469 80.0134 26.1993 81.5506 29.8849 82.7002L35.9175 75.88C33.3974 75.0755 30.9672 74.0145 28.6653 72.7138Z" fill="black"/>
<path d="M29.9141 93.429V82.7002L35.9466 75.88V86.6161L29.9141 93.429Z" fill="#263238"/>
<path d="M32.8652 83.5663V94.3024C41.3225 96.496 50.0842 97.2878 58.7994 96.6461V85.9173L32.8652 83.5663Z" fill="#25AAE3"/>
<path opacity="0.1" d="M32.8652 83.5663V94.3024C41.3225 96.496 50.0842 97.2878 58.7994 96.6461V85.9173L32.8652 83.5663Z" fill="black"/>
<path d="M38.8905 76.7461L32.8506 83.5663C41.308 85.7588 50.0692 86.553 58.7848 85.9173L56.7252 78.3693C50.7318 78.7566 44.7144 78.209 38.8905 76.7461Z" fill="#25AAE3"/>
<path opacity="0.2" d="M38.8905 76.7461L32.8506 83.5663C41.308 85.7588 50.0692 86.553 58.7848 85.9173L56.7252 78.3693C50.7318 78.7566 44.7144 78.209 38.8905 76.7461Z" fill="white"/>
<path d="M78.416 82.7366L87.8227 88.1519C94.1255 84.2724 98.1058 79.5849 99.7418 74.6863V63.9575L86.5958 73.4926C85.4126 76.8481 82.6666 80.0507 78.416 82.7366Z" fill="#25AAE3"/>
<path opacity="0.1" d="M78.416 82.7366L87.8227 88.1519C94.1255 84.2724 98.1058 79.5849 99.7418 74.6863V63.9575L86.5958 73.4926C85.4126 76.8481 82.6666 80.0507 78.416 82.7366Z" fill="black"/>
<path d="M78.416 72.0078L87.8227 77.4231C94.1255 73.5363 98.1058 68.8561 99.7418 63.9575L86.5958 62.7638C85.4126 66.1193 82.6666 69.3146 78.416 72.0078Z" fill="#25AAE3"/>
<path opacity="0.2" d="M78.416 72.0078L87.8227 77.4231C94.1255 73.5363 98.1058 68.8561 99.7418 63.9575L86.5958 62.7638C85.4126 66.1193 82.6666 69.3146 78.416 72.0078Z" fill="white"/>
<path d="M87.8154 77.423V88.1518L78.416 82.7438V72.0077L87.8154 77.423Z" fill="#25AAE3"/>
<path opacity="0.3" d="M87.8154 77.423V88.1518L78.416 82.7438V72.0077L87.8154 77.423Z" fill="black"/>
<path d="M62.0785 85.648V88.5595C61.3847 88.6687 60.6982 88.7633 59.9971 88.8434L62.0785 96.3987C70.5869 95.4524 78.7229 93.1597 85.4493 89.5349V78.7697L62.0785 85.648Z" fill="#25AAE3"/>
<path opacity="0.1" d="M62.0785 85.648V88.5595C61.3847 88.6687 60.6982 88.7633 59.9971 88.8434L62.0785 96.3987C70.5869 95.4524 78.7229 93.1597 85.4493 89.5349V78.7697L62.0785 85.648Z" fill="black"/>
<path d="M59.9971 78.0781L62.0785 85.648C70.5869 84.7017 78.7229 82.4162 85.4493 78.7914L76.0498 73.3761C71.0257 75.8915 65.5879 77.4842 59.9971 78.0781Z" fill="#25AAE3"/>
<path opacity="0.2" d="M59.9971 78.0781L62.0785 85.648C70.5869 84.7017 78.7229 82.4162 85.4493 78.7914L76.0498 73.3761C71.0257 75.8915 65.5879 77.4842 59.9971 78.0781Z" fill="white"/>
<path d="M62.0785 85.6261V96.3549L59.9971 88.8142V78.0781L62.0785 85.6261Z" fill="#25AAE3"/>
<path opacity="0.3" d="M62.0785 85.6261V96.3549L59.9971 88.8142V78.0781L62.0785 85.6261Z" fill="black"/>
<path d="M22.0285 14.1034C22.0539 13.6356 22.1877 13.1803 22.4192 12.7742C22.6508 12.3682 22.9736 12.0226 23.3616 11.7654L42.6669 0.521265C43.3798 0.0896287 44 0.44214 44 1.30541V20.1319C43.9758 20.6 43.8424 21.0557 43.6108 21.462C43.3791 21.8682 43.0557 22.2136 42.6669 22.47L34.5826 27.1748L32.0305 37.5844C32.039 37.7752 31.972 37.9616 31.8443 38.1026C31.7167 38.2436 31.5387 38.3276 31.3496 38.3362C31.1606 38.3448 30.9759 38.2772 30.8362 38.1484C30.6964 38.0195 30.6132 37.84 30.6047 37.6492L28.2735 30.8365L23.3331 33.7141C22.6202 34.1457 22 33.7932 22 32.9371L22.0285 14.1034Z" fill="#25AAE3"/>
<g opacity="0.5">
<path opacity="0.5" d="M22.0285 14.1932C22.0539 13.7332 22.1877 13.2856 22.4192 12.8863C22.6508 12.487 22.9736 12.1472 23.3616 11.8943L42.6669 0.837889C43.3798 0.41346 44 0.760085 44 1.60894V20.1211C43.9758 20.5814 43.8424 21.0295 43.6108 21.4289C43.3791 21.8284 43.0557 22.168 42.6669 22.4201L34.5826 27.0464L32.0305 37.2822C32.039 37.4698 31.972 37.6531 31.8443 37.7917C31.7167 37.9303 31.5387 38.0129 31.3496 38.0214C31.1606 38.0298 30.9759 37.9634 30.8362 37.8367C30.6964 37.71 30.6132 37.5335 30.6047 37.3458L28.2735 30.6469L23.3331 33.4765C22.6202 33.9009 22 33.5543 22 32.7125L22.0285 14.1932Z" fill="white"/>
</g>
<path d="M28.4087 13.2104C28.8236 12.9731 29.2799 12.8037 29.7576 12.7097C30.0784 12.6501 30.4102 12.6646 30.7233 12.752C30.9752 12.8356 31.1851 13.0012 31.3134 13.2175C31.4505 13.4504 31.5315 13.7077 31.551 13.972C31.5817 14.2964 31.597 14.649 31.597 15.0298C31.597 15.4106 31.5817 15.7772 31.551 16.1298C31.5175 16.476 31.4377 16.8171 31.3134 17.1453C31.1665 17.5284 30.9683 17.8932 30.7233 18.2312C30.446 18.6163 30.122 18.9712 29.7576 19.289C29.3503 19.6461 28.8974 19.9563 28.4087 20.2128C27.9889 20.4491 27.531 20.6229 27.0522 20.7276C26.7349 20.7926 26.4048 20.7805 26.0942 20.6923C25.8423 20.6087 25.6324 20.4432 25.504 20.2269C25.3645 19.9944 25.2809 19.7371 25.2588 19.4724C25.2588 19.148 25.2588 18.7672 25.2588 18.4146C25.2588 18.062 25.2588 17.6671 25.2588 17.3145C25.2954 16.9681 25.3778 16.6271 25.504 16.2991C25.6477 15.9147 25.8462 15.5495 26.0942 15.2131C26.3729 14.8288 26.6939 14.472 27.0522 14.1483C27.4612 13.786 27.9168 13.4711 28.4087 13.2104ZM36.8392 9.18386C36.9262 9.02955 37.0289 8.88317 37.1458 8.74665C37.2748 8.61123 37.4276 8.4968 37.598 8.40817L38.8702 7.703C38.9759 7.63127 39.1082 7.60085 39.2381 7.61837C39.3301 7.61837 39.3761 7.71005 39.3761 7.82287C39.3814 7.86032 39.3814 7.89826 39.3761 7.9357L39.3147 8.08378L28.8762 26.2632C28.7893 26.4153 28.6867 26.5594 28.5697 26.6933C28.4424 26.8303 28.2892 26.945 28.1175 27.0318L26.8529 27.737C26.7442 27.8085 26.6097 27.8387 26.4774 27.8216C26.3854 27.8216 26.3394 27.7299 26.3394 27.6171C26.334 27.5797 26.334 27.5417 26.3394 27.5043L26.4007 27.3562L36.8392 9.18386ZM29.5277 17.0324C29.5381 16.9057 29.5381 16.7784 29.5277 16.6517V15.6009C29.5388 15.4813 29.5388 15.361 29.5277 15.2413C29.5235 15.1425 29.4968 15.0456 29.4492 14.9569C29.4017 14.8682 29.3344 14.7897 29.2518 14.7265C29.0985 14.6278 28.8149 14.7265 28.4087 14.9028C28.0952 15.0482 27.8276 15.2653 27.6317 15.5332C27.4357 15.8012 27.318 16.1111 27.2898 16.433C27.2786 16.5621 27.2786 16.6918 27.2898 16.8209C27.2898 16.9901 27.2898 17.1664 27.2898 17.3498C27.2898 17.5331 27.2898 17.7024 27.2898 17.8716C27.2778 17.9889 27.2778 18.1069 27.2898 18.2242C27.2898 18.3237 27.3146 18.4219 27.3625 18.5112C27.4103 18.6005 27.4799 18.6784 27.5657 18.739C27.719 18.8377 27.9949 18.7742 28.4087 18.5627C28.7546 18.403 29.0462 18.1591 29.2518 17.8575C29.4044 17.6029 29.4983 17.322 29.5277 17.0324ZM37.552 15.199C37.9703 14.9614 38.4288 14.7898 38.9086 14.6913C39.2267 14.6316 39.5561 14.6462 39.8666 14.7336C40.1185 14.8172 40.3284 14.9827 40.4567 15.199C40.5962 15.4314 40.6799 15.6888 40.7019 15.9535C40.7019 16.2779 40.7403 16.6587 40.7403 17.0113C40.7403 17.3639 40.7403 17.7588 40.7019 18.1114C40.6659 18.4578 40.5835 18.7989 40.4567 19.1268C40.3116 19.5129 40.1133 19.8802 39.8666 20.2198C39.2795 21.0352 38.4918 21.7117 37.5673 22.1943C37.1511 22.4323 36.6955 22.6061 36.2185 22.7091C35.899 22.7778 35.5653 22.7656 35.2528 22.6738C34.9994 22.5926 34.7886 22.4264 34.6626 22.2084C34.5247 21.9758 34.4436 21.7183 34.4251 21.4539C34.4251 21.1366 34.3791 20.7487 34.3791 20.4032C34.3791 20.0576 34.3791 19.6487 34.4251 19.2961C34.4582 18.9521 34.538 18.6133 34.6626 18.2877C34.8095 17.9023 35.0077 17.5351 35.2528 17.1946C35.5319 16.8086 35.8557 16.4516 36.2185 16.1298C36.6153 15.7597 37.0637 15.4395 37.552 15.1778V15.199ZM38.671 18.9928C38.6814 18.8661 38.6814 18.7388 38.671 18.612V17.5684C38.6821 17.4487 38.6821 17.3284 38.671 17.2087C38.6716 17.1091 38.6469 17.0107 38.5991 16.9214C38.5512 16.832 38.4813 16.7542 38.3951 16.694C38.2418 16.5952 37.9659 16.6517 37.552 16.8703C37.2075 17.0317 36.9164 17.2752 36.709 17.5754C36.5609 17.8268 36.4673 18.1022 36.433 18.3864C36.4257 18.5132 36.4257 18.6403 36.433 18.7672C36.433 18.9435 36.433 19.1198 36.433 19.2961C36.433 19.4724 36.433 19.6557 36.433 19.8179C36.4251 19.9353 36.4251 20.0531 36.433 20.1705C36.4372 20.2693 36.464 20.3662 36.5115 20.4549C36.559 20.5435 36.6263 20.622 36.709 20.6852C36.8622 20.784 37.1458 20.7276 37.552 20.509C37.8981 20.3496 38.1897 20.1056 38.3951 19.8038C38.5531 19.5487 38.6474 19.2645 38.671 18.9717V18.9928Z" fill="#FAFAFA"/>
</svg>
