<svg width="128" height="95" viewBox="0 0 128 95" fill="none" xmlns="http://www.w3.org/2000/svg">
<path d="M10.0809 42.2738C10.8254 42.3574 11.7424 41.6817 13.2123 40.7037C15.0007 39.5125 17.0951 38.4489 19.4395 37.5414C22.0481 36.5104 24.3419 35.9198 27.9495 35.0212C29.3921 34.6618 30.3939 34.489 31.5408 34.2229C31.7379 34.177 31.9979 34.1101 32.039 33.9917C32.08 33.8733 31.8309 33.6685 31.6229 33.5738C30.3775 33.0485 28.5818 32.99 27.0983 33.0012C25.42 33.0292 23.7593 33.1846 22.1713 33.4623C15.8811 34.5016 10.8528 37.0956 9.49513 40.7037C9.15572 41.5981 9.21046 42.1832 10.0809 42.2738ZM114.859 48.6431C90.9907 31.1247 52.2863 28.7591 22.4997 39.3831C-3.51493 48.6626 -2.77587 72.3582 4.02888 79.9367C10.5216 87.1642 24.5581 94.4251 58.3985 94.9698C88.2973 95.4477 102.564 90.1538 112.689 85.6833C132.487 76.9471 130.527 60.1405 114.859 48.6431Z" fill="#404642" fill-opacity="0.23"/>
<path d="M10.0809 42.2738C10.8254 42.3574 11.7424 41.6817 13.2123 40.7037C15.0007 39.5125 17.0951 38.4489 19.4395 37.5414C22.0481 36.5104 24.3419 35.9198 27.9495 35.0212C29.3921 34.6618 30.3939 34.489 31.5408 34.2229C31.7379 34.177 31.9979 34.1101 32.039 33.9917C32.08 33.8733 31.8309 33.6685 31.6229 33.5738C30.3775 33.0485 28.5818 32.99 27.0983 33.0012C25.42 33.0292 23.7593 33.1846 22.1713 33.4623C15.8811 34.5016 10.8528 37.0956 9.49513 40.7037C9.15572 41.5981 9.21046 42.1832 10.0809 42.2738ZM114.859 48.6431C90.9907 31.1247 52.2863 28.7591 22.4997 39.3831C-3.51493 48.6626 -2.77587 72.3582 4.02888 79.9367C10.5216 87.1642 24.5581 94.4251 58.3985 94.9698C88.2973 95.4477 102.564 90.1538 112.689 85.6833C132.487 76.9471 130.527 60.1405 114.859 48.6431Z" fill="url(#paint0_linear)"/>
<path d="M117.507 34.1313V81.5158C117.507 81.9488 116.912 82.1236 116.174 81.9071L4.3223 49.0374C3.93629 48.9083 3.61543 48.7348 3.3857 48.5308C3.15595 48.3269 3.02379 48.0983 2.99989 47.8635V0.4842C2.99989 0.0511549 3.59447 -0.123628 4.32744 0.0928942L116.179 32.9626C116.565 33.0909 116.886 33.2635 117.117 33.4665C117.347 33.6695 117.481 33.8972 117.507 34.1313Z" fill="#25AAE3"/>
<path d="M4.3223 0.0928941L116.174 32.9626C116.562 33.0911 116.885 33.2644 117.117 33.4684C117.348 33.6723 117.482 33.9012 117.507 34.1365V37.1L2.99989 3.37204V0.4842C2.99989 0.0511549 3.58934 -0.123628 4.3223 0.0928941Z" fill="#263238"/>
<path d="M18.607 5.35464C18.9886 5.48112 19.3059 5.65177 19.5331 5.85263C19.7602 6.05349 19.8908 6.27885 19.9141 6.51031C19.9141 6.93553 19.3297 7.10771 18.6019 6.8964C18.2204 6.76903 17.903 6.59788 17.6751 6.39671C17.4472 6.19554 17.3152 5.96997 17.2897 5.73812C17.2949 5.3129 17.8638 5.14072 18.607 5.35464Z" fill="white"/>
<path d="M13.4046 3.82325C13.786 3.95006 14.1035 4.12072 14.3314 4.32146C14.5593 4.52221 14.6913 4.74741 14.7168 4.9789C14.7168 5.40673 14.1273 5.5789 13.4046 5.36499C13.0221 5.2388 12.7038 5.06828 12.4757 4.86741C12.2476 4.66654 12.1163 4.44102 12.0925 4.20933C12.0925 3.77629 12.6768 3.61194 13.4046 3.82325Z" fill="white"/>
<path d="M8.1976 2.29464C8.57898 2.42145 8.89643 2.59211 9.12436 2.79285C9.35229 2.9936 9.48432 3.2188 9.50977 3.45029C9.50977 3.87551 8.92032 4.0503 8.1976 3.83638C7.81623 3.70957 7.49876 3.53891 7.27083 3.33817C7.0429 3.13742 6.91087 2.91222 6.88542 2.68073C6.88542 2.2529 7.47488 2.08072 8.1976 2.29464Z" fill="white"/>
<path d="M81.5817 32.8843V46.9713L105.544 54.0148V39.9278L81.5817 32.8843ZM81.0691 32.433L106.057 39.7765V54.4609L81.0691 47.1174V32.433Z" fill="#FAFAFA"/>
<path d="M72.9961 44.8948V29.9104L47.5011 22.4182V37.4026L72.9961 44.8948ZM72.4835 30.0617V44.4435L48.0137 37.2513V22.8695L72.4835 30.0617Z" fill="#FAFAFA"/>
<path d="M57.0247 29.8139L55.6818 28.3374C57.1678 28.2306 58.6807 28.3872 59.9668 28.7809V30.1243C59.0783 29.8611 58.0456 29.7521 57.0247 29.8139Z" fill="#25AAE3"/>
<path d="M54.7695 30.8129L52.5962 29.7695C52.8054 29.4548 53.1527 29.1687 53.6119 28.9327C54.0712 28.6967 54.6301 28.5172 55.2462 28.4077L56.584 29.8842C56.1677 29.9631 55.7899 30.087 55.4767 30.2473C55.1635 30.4077 54.9222 30.6006 54.7695 30.8129Z" fill="#25AAE3"/>
<path d="M63.4825 37.4991L64.8203 38.973C63.3369 39.0846 61.8235 38.9296 60.5404 38.5347V37.1938C61.4279 37.4582 62.4625 37.5656 63.4825 37.4991Z" fill="#25AAE3"/>
<path d="M56.5635 35.2712L55.2257 35.9599C54.0361 35.0667 53.141 34.0807 52.5757 33.0408L54.7695 33.2547C55.1572 33.9704 55.7625 34.6508 56.5635 35.2712Z" fill="#25AAE3"/>
<path d="M59.9668 37.0269V38.3678C58.2938 37.816 56.8415 37.1079 55.6869 36.2808L57.0247 35.6025C57.83 36.1631 58.8265 36.6456 59.9668 37.0269Z" fill="#25AAE3"/>
<path d="M52.4012 30.0278L54.5693 31.0713C54.4258 31.347 54.3552 31.6313 54.3592 31.9165C54.3646 32.2428 54.435 32.5679 54.5693 32.887L52.4012 32.6652C52.1966 32.2001 52.0901 31.7253 52.0834 31.2487C52.0766 30.8362 52.1836 30.4252 52.4012 30.0278Z" fill="#25AAE3"/>
<g opacity="0.2">
<path opacity="0.2" d="M57.0237 29.8139L55.6808 28.3374C57.1668 28.2306 58.6797 28.3872 59.9658 28.7809V30.1243C59.0773 29.8611 58.0446 29.7521 57.0237 29.8139Z" fill="black"/>
<path opacity="0.2" d="M54.7695 30.8125L52.5962 29.769C52.8054 29.4544 53.1527 29.1682 53.6119 28.9322C54.0712 28.6962 54.6301 28.5167 55.2462 28.4072L56.584 29.8838C56.1677 29.9627 55.7899 30.0866 55.4767 30.2469C55.1635 30.4072 54.9222 30.6002 54.7695 30.8125Z" fill="black"/>
<path opacity="0.2" d="M63.4825 37.4993L64.8203 38.9732C63.3369 39.0848 61.8235 38.9299 60.5404 38.5349V37.1941C61.4279 37.4585 62.4625 37.5658 63.4825 37.4993Z" fill="black"/>
<path opacity="0.2" d="M56.5635 35.2713L55.2257 35.96C54.0361 35.0669 53.141 34.0809 52.5757 33.0409L54.7695 33.2548C55.1572 33.9705 55.7625 34.6509 56.5635 35.2713Z" fill="black"/>
<path opacity="0.2" d="M59.9658 37.027V38.3679C58.2929 37.8162 56.8406 37.108 55.6859 36.2809L57.0237 35.6027C57.829 36.1632 58.8255 36.6457 59.9658 37.027Z" fill="black"/>
<path opacity="0.2" d="M52.4012 30.0278L54.5693 31.0713C54.4258 31.3471 54.3552 31.6313 54.3592 31.9165C54.3646 32.2428 54.435 32.5679 54.5693 32.887L52.4012 32.6652C52.1966 32.2001 52.0901 31.7253 52.0834 31.2487C52.0766 30.8362 52.1836 30.4252 52.4012 30.0278Z" fill="black"/>
</g>
<path d="M60.5355 30.2859V28.9451C62.2096 29.4961 63.6622 30.2043 64.8154 31.032L63.4776 31.7207C62.6757 31.1557 61.6788 30.6696 60.5355 30.2859Z" fill="#FAFAFA"/>
<path d="M63.9351 32.0417L65.2729 31.353C66.4647 32.2446 67.36 33.2299 67.9229 34.2696L65.7547 34.0478C65.3588 33.3346 64.7448 32.6577 63.9351 32.0417Z" fill="#FAFAFA"/>
<path d="M66.143 35.386C66.1355 35.0596 66.0634 34.7345 65.9277 34.4155L68.0959 34.6399C68.3001 35.1041 68.4066 35.5781 68.4136 36.0538C68.4217 36.4698 68.3147 36.8843 68.0959 37.2851L65.9277 36.2416C66.0744 35.9626 66.1468 35.6748 66.143 35.386Z" fill="#FAFAFA"/>
<path d="M65.7547 36.4999L67.9229 37.5434C67.7144 37.8579 67.3672 38.1439 66.9079 38.3795C66.4485 38.6151 65.8892 38.794 65.2729 38.9025L63.9351 37.4286C64.3523 37.35 64.7311 37.2262 65.0452 37.0659C65.3594 36.9056 65.6014 36.7124 65.7547 36.4999Z" fill="#FAFAFA"/>
<path d="M65.123 35.0809C65.123 33.4974 62.9395 31.5748 60.2486 30.7844C57.5576 29.994 55.3741 30.6331 55.3741 32.2166C55.3741 33.8001 57.5576 35.7227 60.2486 36.5131C62.9395 37.3036 65.123 36.6696 65.123 35.0809Z" fill="#25AAE3"/>
<path opacity="0.2" d="M65.123 35.0809C65.123 33.4974 62.9395 31.5748 60.2486 30.7844C57.5576 29.994 55.3741 30.6331 55.3741 32.2166C55.3741 33.8001 57.5576 35.7227 60.2486 36.5131C62.9395 37.3036 65.123 36.6696 65.123 35.0809Z" fill="black"/>
<path d="M60.7301 32.84C60.7198 32.9416 60.7198 33.0435 60.7301 33.1452C60.7394 33.2291 60.7669 33.3122 60.8121 33.393C60.8557 33.4775 60.923 33.5583 61.012 33.633C61.2023 33.8003 61.4765 33.9389 61.8064 34.0347C61.9486 34.0805 62.1071 34.1115 62.2729 34.126C62.3848 34.1374 62.5011 34.1282 62.6009 34.1C62.691 34.0707 62.7609 34.0278 62.8008 33.9773C62.8499 33.9141 62.8777 33.8471 62.8828 33.7791C62.8828 33.7269 62.8828 33.6773 62.8828 33.6304C62.8828 33.5834 62.8828 33.5313 62.8828 33.4713C62.8744 33.383 62.8469 33.2955 62.8008 33.2104C62.7538 33.1274 62.6866 33.0476 62.6009 32.973C62.5104 32.8923 62.4002 32.8178 62.2729 32.7513C62.1339 32.6809 61.9771 32.6204 61.8064 32.5713C61.6637 32.5256 61.5055 32.4938 61.34 32.4773C61.2274 32.4681 61.112 32.4782 61.012 32.506C60.9218 32.5353 60.8519 32.5782 60.8121 32.6287C60.7628 32.6964 60.7351 32.7677 60.7301 32.84ZM59.0181 31.8617C58.9921 31.8312 58.9594 31.8023 58.9207 31.7756C58.8805 31.7496 58.8298 31.7282 58.7721 31.713L58.2082 31.5487C58.1924 31.5415 58.1733 31.5365 58.1526 31.5343C58.132 31.532 58.1105 31.5324 58.0903 31.5356C58.0596 31.5356 58.0442 31.5565 58.0442 31.58C58.0424 31.5869 58.0424 31.5939 58.0442 31.6008C58.042 31.6112 58.042 31.6217 58.0442 31.6321L61.4323 35.2452C61.4612 35.2746 61.4955 35.3025 61.5348 35.3286C61.5741 35.3548 61.6228 35.3769 61.6783 35.3939L62.2421 35.5582C62.2605 35.5626 62.2807 35.5649 62.3011 35.5649C62.3214 35.5649 62.3416 35.5626 62.36 35.5582C62.3908 35.5582 62.4061 35.5373 62.4061 35.5139C62.4061 35.4904 62.4061 35.5008 62.4061 35.4904C62.4061 35.48 62.4061 35.4721 62.4061 35.4617L59.0181 31.8617ZM62.0935 33.5234C62.0953 33.572 62.0705 33.6199 62.0217 33.6617C61.9858 33.6852 61.9141 33.68 61.8116 33.6617C61.721 33.6367 61.649 33.5973 61.6065 33.5495C61.5609 33.4922 61.5349 33.4313 61.5297 33.3695C61.5198 33.2826 61.5198 33.1955 61.5297 33.1086C61.5286 33.0606 61.5553 33.0134 61.6065 32.973C61.6424 32.9495 61.7142 32.9521 61.8116 32.973C61.9048 32.997 61.979 33.0366 62.0217 33.0852C62.0654 33.1427 62.0896 33.2035 62.0935 33.2652C62.1057 33.3486 62.1039 33.4324 62.0883 33.5156L62.0935 33.5234ZM57.5573 33.3147C57.547 33.4173 57.547 33.52 57.5573 33.6226C57.5679 33.7053 57.5936 33.7874 57.6342 33.8678C57.7248 34.0407 57.9013 34.1988 58.1467 34.3269C58.2841 34.3989 58.4412 34.4604 58.6132 34.5095C58.7554 34.5552 58.9138 34.5863 59.0796 34.6008C59.1915 34.6134 59.3086 34.6041 59.4076 34.5747C59.4978 34.5455 59.5677 34.5026 59.6075 34.4521C59.6567 34.3889 59.6844 34.3218 59.6895 34.2539C59.6895 34.2017 59.6895 34.1521 59.6895 34.1078C59.6895 34.0634 59.6895 34.006 59.6895 33.946C59.6797 33.863 59.6522 33.7808 59.6075 33.7008C59.5604 33.617 59.4932 33.5364 59.4076 33.4608C59.3183 33.3805 59.208 33.3068 59.0796 33.2417C58.9422 33.1697 58.7851 33.1082 58.6132 33.0591C58.471 33.0134 58.3125 32.9823 58.1467 32.9678C58.0348 32.9552 57.9177 32.9645 57.8187 32.9939C57.7286 33.0231 57.6587 33.066 57.6188 33.1165C57.5749 33.1802 57.5524 33.2472 57.5521 33.3147H57.5573ZM58.9156 34.0008C58.9152 34.0484 58.8905 34.0952 58.8438 34.1365C58.8028 34.16 58.7362 34.1573 58.6337 34.1365C58.5416 34.1116 58.4679 34.0723 58.4235 34.0243C58.3823 33.9664 58.3581 33.9058 58.3517 33.8443C58.3419 33.7574 58.3419 33.6703 58.3517 33.5834C58.3521 33.5358 58.3768 33.4891 58.4235 33.4478C58.4645 33.4243 58.5312 33.4269 58.6337 33.4478C58.7257 33.4726 58.7994 33.512 58.8438 33.56C58.8851 33.6178 58.9092 33.6785 58.9156 33.74C58.9286 33.8268 58.9269 33.9141 58.9104 34.0008H58.9156Z" fill="#FAFAFA"/>
<path d="M39.6846 35.1069V20.1199L14.1896 12.6277V27.6147L39.6846 35.1069ZM39.172 20.2712V34.653L14.7022 27.4634V13.0816L39.172 20.2712Z" fill="#FAFAFA"/>
<path d="M27.2189 20.4956V19.1677C28.8948 19.7185 30.3491 20.4268 31.5039 21.2547L30.161 21.946C29.3625 21.3752 28.3653 20.8836 27.2189 20.4956Z" fill="#FAFAFA"/>
<path d="M30.6226 22.2538L31.9604 21.5651C33.1532 22.4563 34.0486 23.4418 34.6104 24.4816L32.4422 24.2572C32.0431 23.5455 31.4292 22.8696 30.6226 22.2538Z" fill="#FAFAFA"/>
<path d="M23.7122 20.026L22.3693 18.5468C23.8553 18.4401 25.3682 18.5967 26.6543 18.9903V20.3286C25.7658 20.0657 24.7316 19.9593 23.7122 20.026Z" fill="#25AAE3"/>
<path d="M21.4519 21.0227L19.2837 19.9792C19.4928 19.6649 19.8403 19.3791 20.2996 19.1435C20.7588 18.908 21.3178 18.729 21.9337 18.6201L23.2715 20.094C22.8543 20.1726 22.4755 20.2964 22.1614 20.4567C21.8472 20.617 21.6051 20.8102 21.4519 21.0227Z" fill="#25AAE3"/>
<path d="M30.1661 27.7087L31.5039 29.1853C30.2738 29.3131 28.8027 29.1853 27.2189 28.7444V27.4061C28.1089 27.6696 29.145 27.776 30.1661 27.7087Z" fill="#25AAE3"/>
<path d="M19.0897 20.2374L21.2578 21.2809C21.1125 21.5574 21.0401 21.8425 21.0425 22.1287C21.05 22.4551 21.1221 22.7802 21.2578 23.0992L19.0897 22.8774C18.8854 22.4123 18.7789 21.9375 18.7719 21.4609C18.7652 21.0475 18.8722 20.6357 19.0897 20.2374Z" fill="#25AAE3"/>
<path d="M23.252 25.4807L21.9142 26.1694C20.7223 25.2779 19.827 24.2925 19.2642 23.2529L21.4323 23.4773C21.8315 24.189 22.4453 24.8649 23.252 25.4807Z" fill="#25AAE3"/>
<path d="M32.8314 25.5982C32.8242 25.2719 32.7521 24.9468 32.6162 24.6278L34.7843 24.8495C34.9886 25.3147 35.0951 25.7895 35.1021 26.2661C35.1104 26.6812 35.0034 27.0948 34.7843 27.4948L32.6162 26.4513C32.762 26.1731 32.8344 25.8862 32.8314 25.5982Z" fill="#25AAE3"/>
<path d="M32.4422 26.7095L34.6104 27.753C34.4012 28.0673 34.0538 28.3531 33.5945 28.5887C33.1353 28.8242 32.5763 29.0032 31.9604 29.1121L30.6226 27.6382C31.0398 27.5596 31.4186 27.4358 31.7327 27.2755C32.0469 27.1152 32.2889 26.922 32.4422 26.7095Z" fill="#25AAE3"/>
<path d="M26.6543 27.2391V28.5774C24.9807 28.0305 23.5265 27.3267 22.3693 26.5034L23.7071 25.8121C24.5127 26.3742 25.5111 26.8576 26.6543 27.2391Z" fill="#25AAE3"/>
<g opacity="0.2">
<path opacity="0.2" d="M23.7141 20.026L22.3712 18.5468C23.8572 18.4401 25.3702 18.5967 26.6562 18.9903V20.3286C25.7677 20.0657 24.7336 19.9593 23.7141 20.026Z" fill="black"/>
<path opacity="0.2" d="M21.4538 21.0219L19.2857 19.9784C19.4948 19.6641 19.8423 19.3783 20.3015 19.1427C20.7608 18.9071 21.3197 18.7281 21.9357 18.6193L23.2734 20.0932C22.8562 20.1718 22.4775 20.2955 22.1633 20.4559C21.8492 20.6162 21.6071 20.8093 21.4538 21.0219Z" fill="black"/>
<path opacity="0.2" d="M30.1671 27.7086L31.5049 29.1851C30.2747 29.313 28.8037 29.1851 27.2199 28.7443V27.406C28.1098 27.6695 29.146 27.7759 30.1671 27.7086Z" fill="black"/>
<path opacity="0.2" d="M19.0907 20.2374L21.2588 21.2809C21.1135 21.5574 21.0411 21.8425 21.0435 22.1287C21.051 22.4551 21.1231 22.7802 21.2588 23.0992L19.0907 22.8774C18.8864 22.4123 18.7799 21.9375 18.7728 21.4609C18.7662 21.0475 18.8732 20.6357 19.0907 20.2374Z" fill="black"/>
<path opacity="0.2" d="M23.2529 25.4806L21.9151 26.1693C20.7233 25.2778 19.828 24.2924 19.2652 23.2528L21.4333 23.4772C21.8325 24.1889 22.4463 24.8648 23.2529 25.4806Z" fill="black"/>
<path opacity="0.2" d="M32.8324 25.5984C32.8252 25.272 32.7531 24.9469 32.6171 24.6279L34.7853 24.8497C34.9895 25.3148 35.0961 25.7896 35.1031 26.2662C35.1113 26.6813 35.0044 27.095 34.7853 27.4949L32.6171 26.4514C32.763 26.1732 32.8354 25.8863 32.8324 25.5984Z" fill="black"/>
<path opacity="0.2" d="M32.4422 26.7096L34.6104 27.7531C34.4012 28.0674 34.0538 28.3532 33.5945 28.5888C33.1353 28.8243 32.5763 29.0034 31.9604 29.1122L30.6226 27.6383C31.0398 27.5597 31.4186 27.436 31.7327 27.2756C32.0469 27.1153 32.2889 26.9222 32.4422 26.7096Z" fill="black"/>
<path opacity="0.2" d="M26.6562 27.2392V28.5775C24.9826 28.0306 23.5285 27.3268 22.3712 26.5036L23.709 25.8123C24.5146 26.3743 25.5131 26.8577 26.6562 27.2392Z" fill="black"/>
</g>
<path d="M31.8115 25.2982C31.8115 23.7173 29.628 21.7947 26.937 21.0016C24.2461 20.2086 22.0625 20.8529 22.0625 22.4338C22.0625 24.0147 24.2461 25.9504 26.937 26.733C29.628 27.5156 31.8115 26.8817 31.8115 25.2982Z" fill="#25AAE3"/>
<path opacity="0.2" d="M31.8115 25.2982C31.8115 23.7173 29.628 21.7947 26.937 21.0016C24.2461 20.2086 22.0625 20.8529 22.0625 22.4338C22.0625 24.0147 24.2461 25.9504 26.937 26.733C29.628 27.5156 31.8115 26.8817 31.8115 25.2982Z" fill="black"/>
<path d="M27.4177 23.0522C27.4075 23.1539 27.4075 23.2558 27.4177 23.3574C27.4283 23.4411 27.454 23.524 27.4946 23.6053C27.5428 23.6881 27.6098 23.7678 27.6945 23.8427C27.7873 23.9233 27.8991 23.9977 28.0277 24.0644C28.1666 24.1348 28.3235 24.1953 28.4941 24.2444C28.6373 24.2897 28.7953 24.3215 28.9605 24.3383C29.0725 24.3484 29.188 24.3392 29.2886 24.3122C29.3787 24.283 29.4486 24.2401 29.4885 24.1896C29.5375 24.1254 29.5652 24.0576 29.5705 23.9888C29.5755 23.9401 29.5755 23.8913 29.5705 23.8427C29.5705 23.7957 29.5705 23.7435 29.5705 23.6835C29.5607 23.5997 29.5332 23.5166 29.4885 23.4357C29.4404 23.352 29.3733 23.2715 29.2886 23.1957C29.1993 23.1154 29.0889 23.0417 28.9605 22.9766C28.8216 22.9062 28.6647 22.8457 28.4941 22.7966C28.3509 22.7513 28.1929 22.7195 28.0277 22.7027C27.9157 22.6926 27.8003 22.7018 27.6996 22.7287C27.6095 22.758 27.5396 22.8009 27.4997 22.8514C27.4507 22.9155 27.423 22.9834 27.4177 23.0522ZM25.7058 22.074C25.6778 22.044 25.6452 22.0152 25.6084 21.9879C25.5671 21.9624 25.5166 21.9412 25.4597 21.9253L24.8959 21.7583C24.8615 21.7462 24.8192 21.7415 24.778 21.7453C24.7473 21.7453 24.7319 21.7661 24.7319 21.7922C24.7319 21.8183 24.7319 21.7922 24.7319 21.8131C24.7299 21.8235 24.7299 21.834 24.7319 21.8444L28.1148 25.4548C28.1428 25.4848 28.1753 25.5136 28.2122 25.5409C28.2524 25.567 28.3031 25.5883 28.3609 25.6035L28.9247 25.7705C28.9416 25.7766 28.9607 25.7809 28.981 25.7832C29.0012 25.7854 29.0222 25.7855 29.0426 25.7835C29.0733 25.7835 29.0887 25.7627 29.0887 25.7366C29.0905 25.7297 29.0905 25.7226 29.0887 25.7157C29.0909 25.7053 29.0909 25.6948 29.0887 25.6844L25.7058 22.074ZM28.7811 23.7357C28.782 23.7834 28.7572 23.8303 28.7094 23.8714C28.6684 23.8948 28.6018 23.8922 28.4992 23.8714C28.4077 23.845 28.3343 23.8049 28.2891 23.7566C28.2478 23.6996 28.2236 23.6398 28.2173 23.5792C28.2075 23.4923 28.2075 23.4052 28.2173 23.3183C28.2164 23.2706 28.2412 23.2237 28.2891 23.1827C28.3301 23.1592 28.3967 23.1618 28.4992 23.1827C28.5908 23.209 28.6641 23.2491 28.7094 23.2974C28.7507 23.3544 28.7748 23.4142 28.7811 23.4748C28.7893 23.5618 28.7876 23.6489 28.776 23.7357H28.7811ZM24.245 23.527C24.2296 23.6286 24.2296 23.7306 24.245 23.8322C24.2535 23.9203 24.2792 24.0077 24.3218 24.0931C24.3709 24.1766 24.4379 24.2571 24.5217 24.3331C24.6132 24.4134 24.7252 24.4871 24.8549 24.5522C24.995 24.6227 25.1517 24.684 25.3213 24.7348C25.4642 24.7799 25.6224 24.8108 25.7878 24.8261C25.8997 24.8375 26.016 24.8283 26.1158 24.8001C26.2059 24.7708 26.2758 24.7279 26.3157 24.6774C26.3618 24.6137 26.3894 24.547 26.3977 24.4792C26.3977 24.427 26.3977 24.3774 26.3977 24.3305C26.3977 24.2835 26.3977 24.2314 26.3977 24.1714C26.3854 24.0876 26.3579 24.0047 26.3157 23.9235C26.2676 23.8398 26.2005 23.7593 26.1158 23.6835C26.0239 23.6041 25.9138 23.5306 25.7878 23.4644C25.6478 23.3946 25.4911 23.3342 25.3213 23.2844C25.1781 23.2392 25.0202 23.2073 24.8549 23.1905C24.7429 23.1804 24.6275 23.1896 24.5269 23.2166C24.4367 23.2458 24.3668 23.2887 24.327 23.3392C24.2793 23.3992 24.2499 23.4625 24.2398 23.527H24.245ZM25.6033 24.2105C25.6042 24.2582 25.5793 24.3051 25.5315 24.3461C25.4905 24.3696 25.4187 24.367 25.3213 24.3461C25.2277 24.3211 25.1537 24.2806 25.1112 24.2314C25.0671 24.1748 25.0428 24.1148 25.0394 24.054C25.0246 23.9672 25.0246 23.8799 25.0394 23.7931C25.0365 23.7453 25.0615 23.6981 25.1112 23.6574C25.1522 23.634 25.2188 23.6366 25.3213 23.6574C25.4129 23.6838 25.4862 23.7239 25.5315 23.7722C25.5722 23.8293 25.5964 23.889 25.6033 23.9496C25.6114 24.0366 25.6097 24.1237 25.5981 24.2105H25.6033Z" fill="#FAFAFA"/>
<path d="M106.057 58.134V72.8184L81.0691 65.4749V50.7931L106.057 58.134Z" fill="#25AAE3"/>
<path opacity="0.7" d="M106.057 58.134V72.8184L81.0691 65.4749V50.7931L106.057 58.134Z" fill="#FAFAFA"/>
<path d="M106.057 62.0157C105.211 62.1826 104.119 62.1148 102.93 61.7548C100.239 60.9722 98.0555 59.0391 98.0555 57.4583C97.9905 56.9441 98.3277 56.4377 98.9935 56.0496L106.057 58.1235V62.0157Z" fill="#25AAE3"/>
<path d="M95.0514 62.3784C94.8053 61.9662 94.3184 61.948 93.9647 62.3419L90.4383 66.2549L85.1845 56.1306C84.9641 55.7132 84.6002 55.7106 84.3747 56.1306L81.0686 62.1071V65.4775L100.274 71.1228L95.0514 62.3784Z" fill="#25AAE3"/>
<g opacity="0.2">
<path opacity="0.2" d="M106.057 62.0157C105.211 62.1826 104.119 62.1148 102.93 61.7548C100.239 60.9722 98.0555 59.0391 98.0555 57.4583C97.9905 56.9441 98.3277 56.4377 98.9935 56.0496L106.057 58.1235V62.0157Z" fill="black"/>
<path opacity="0.2" d="M95.0514 62.3784C94.8053 61.9662 94.3184 61.948 93.9647 62.3419L90.4383 66.2549L85.1845 56.1306C84.9641 55.7132 84.6002 55.7106 84.3747 56.1306L81.0686 62.1071V65.4775L100.274 71.1228L95.0514 62.3784Z" fill="black"/>
</g>
<path d="M81.5817 51.2548V65.3418L105.544 72.3853V58.2983L81.5817 51.2548ZM81.0691 50.8035L106.057 58.1444V72.8288L81.0691 65.4853V50.7931V50.8035Z" fill="#25AAE3"/>
<path opacity="0.7" d="M81.5817 51.2548V65.3418L105.544 72.3853V58.2983L81.5817 51.2548ZM81.0691 50.8035L106.057 58.1444V72.8288L81.0691 65.4853V50.7931V50.8035Z" fill="#FAFAFA"/>
<path d="M72.7393 48.3461V63.0279L47.7569 55.687V41.0052L72.7393 48.3461Z" fill="#25AAE3"/>
<path opacity="0.7" d="M72.7393 48.3461V63.0279L47.7569 55.687V41.0052L72.7393 48.3461Z" fill="#FAFAFA"/>
<path d="M72.7393 52.2279C71.8935 52.3949 70.8069 52.3244 69.6177 51.967C66.9268 51.1844 64.7432 49.2514 64.7432 47.6679C64.679 47.1546 65.0162 46.6492 65.6812 46.2618L72.7393 48.3357V52.2279Z" fill="#25AAE3"/>
<path d="M61.7399 52.5905C61.4887 52.1757 61.0018 52.16 60.6481 52.5514L57.1268 56.4644L51.8679 46.34C51.6526 45.9226 51.2887 45.92 51.058 46.34L47.7571 52.314V55.6896L66.9629 61.3323L61.7399 52.5905Z" fill="#25AAE3"/>
<g opacity="0.2">
<path opacity="0.2" d="M72.7402 52.2278C71.8945 52.3948 70.8079 52.3243 69.6187 51.9669C66.9278 51.1843 64.7442 49.2513 64.7442 47.6678C64.68 47.1545 65.0172 46.649 65.6822 46.2617L72.7402 48.3356V52.2278Z" fill="black"/>
<path opacity="0.2" d="M61.7408 52.5905C61.4897 52.1757 61.0027 52.16 60.6491 52.5513L57.1277 56.4644L51.8688 46.34C51.6535 45.9226 51.2896 45.92 51.059 46.34L47.7581 52.314V55.6896L66.9639 61.3322L61.7408 52.5905Z" fill="black"/>
</g>
<path d="M48.2694 41.4564V55.5434L72.2267 62.5869V48.4999L48.2694 41.4564ZM47.7569 41.0024L72.7393 48.346V63.0278L47.7569 55.6895V41.0024Z" fill="#25AAE3"/>
<path opacity="0.7" d="M48.2694 41.4564V55.5434L72.2267 62.5869V48.4999L48.2694 41.4564ZM47.7569 41.0024L72.7393 48.346V63.0278L47.7569 55.6895V41.0024Z" fill="#FAFAFA"/>
<path d="M39.4287 38.5557V53.2401L14.4463 45.8992V31.2148L39.4287 38.5557Z" fill="#25AAE3"/>
<path opacity="0.7" d="M39.4287 38.5557V53.2401L14.4463 45.8992V31.2148L39.4287 38.5557Z" fill="#FAFAFA"/>
<path d="M39.4287 42.4399C38.583 42.6068 37.4963 42.5364 36.3072 42.179C33.6162 41.3964 31.4327 39.466 31.4327 37.8825C31.3688 37.3684 31.7058 36.8622 32.3707 36.4738L39.4287 38.5477V42.4399Z" fill="#25AAE3"/>
<path d="M28.4293 42.8C28.1782 42.3878 27.6912 42.3721 27.3376 42.7634L23.8162 46.6765L18.5573 36.5495C18.342 36.1321 17.9781 36.1321 17.7475 36.5495L14.4465 42.526V45.8991L33.6523 51.5417L28.4293 42.8Z" fill="#25AAE3"/>
<g opacity="0.2">
<path opacity="0.2" d="M39.4277 42.4399C38.582 42.6068 37.4954 42.5364 36.3062 42.179C33.6153 41.3964 31.4317 39.466 31.4317 37.8825C31.3678 37.3684 31.7049 36.8622 32.3697 36.4738L39.4277 38.5477V42.4399Z" fill="black"/>
<path opacity="0.2" d="M28.4283 42.7999C28.1772 42.3878 27.6903 42.3721 27.3366 42.7634L23.8153 46.6765L18.5563 36.5495C18.3411 36.1321 17.9771 36.1321 17.7465 36.5495L14.4456 42.526V45.8991L33.6514 51.5417L28.4283 42.7999Z" fill="black"/>
</g>
<path d="M14.9589 31.6662V45.7531L38.9161 52.7966V38.7096L14.9589 31.6662ZM14.4463 31.2148L39.4287 38.5557V53.2401L14.4463 45.8992V31.2148Z" fill="#25AAE3"/>
<path opacity="0.7" d="M14.9589 31.6662V45.7531L38.9161 52.7966V38.7096L14.9589 31.6662ZM14.4463 31.2148L39.4287 38.5557V53.2401L14.4463 45.8992V31.2148Z" fill="#FAFAFA"/>
<path d="M17.5674 36.2391L10.2069 37.2383L12.6878 37.9504L8.18744 39.6278L8.77177 40.087L13.4053 38.3991L14.0204 39.7765L17.5674 36.2391Z" fill="#263238"/>
<defs>
<linearGradient id="paint0_linear" x1="63.537" y1="33" x2="63.537" y2="95" gradientUnits="userSpaceOnUse">
<stop stop-color="#25AAE3" stop-opacity="0.86"/>
<stop offset="1" stop-color="white" stop-opacity="0"/>
</linearGradient>
</defs>
</svg>
