<svg width="27" height="29" viewBox="0 0 27 29" fill="none" xmlns="http://www.w3.org/2000/svg">
<path d="M24.1071 0.9375H2.89286C1.29576 0.9375 0 2.23926 0 3.84375V25.1562C0 26.7607 1.29576 28.0625 2.89286 28.0625H24.1071C25.7042 28.0625 27 26.7607 27 25.1562V3.84375C27 2.23926 25.7042 0.9375 24.1071 0.9375ZM21.16 10.5523C21.1721 10.7219 21.1721 10.8975 21.1721 11.067C21.1721 16.3164 17.1944 22.365 9.92612 22.365C7.68415 22.365 5.60491 21.7111 3.85714 20.585C4.17656 20.6213 4.48393 20.6334 4.80938 20.6334C6.6596 20.6334 8.35915 20.0037 9.71518 18.9381C7.97946 18.9018 6.52098 17.7574 6.02076 16.1832C6.62946 16.274 7.1779 16.274 7.80469 16.1105C5.99665 15.7412 4.64062 14.1428 4.64062 12.2113V12.1629C5.16496 12.4596 5.77969 12.6412 6.42455 12.6654C5.8824 12.3031 5.43796 11.8116 5.13089 11.2348C4.82381 10.658 4.66367 10.0137 4.66473 9.35957C4.66473 8.6209 4.85759 7.94277 5.20112 7.35547C7.14777 9.76523 10.0708 11.3395 13.3493 11.509C12.7888 8.81465 14.7958 6.62891 17.2065 6.62891C18.3455 6.62891 19.3701 7.10723 20.0933 7.88223C20.9853 7.7127 21.8411 7.37969 22.6004 6.92559C22.3051 7.8459 21.6844 8.6209 20.8647 9.11133C21.6603 9.02656 22.4317 8.80254 23.1429 8.49375C22.6065 9.28691 21.9315 9.98926 21.16 10.5523Z" fill="#25AAE3"/>
</svg>
