<svg width="197" height="154" viewBox="0 0 197 154" fill="none" xmlns="http://www.w3.org/2000/svg">
<g opacity="0.7">
<path d="M13.1591 105.748C38.4832 132.869 64.0537 136.303 99.9971 142.73C135.94 149.157 162.332 144.715 181.78 128.335C204.234 109.401 203.347 66.0282 168.987 50.5845C158.252 45.7488 145.47 44.2852 136.066 37.4845C118.108 24.5073 103.584 4.31487 74.7551 0.523032C45.926 -3.26881 26.4893 14.8 26.4893 14.8C2.8137 39.0248 -12.165 78.6063 13.1591 105.748Z" fill="#DDF5FF"/>
<path d="M13.1591 105.748C38.4832 132.869 64.0537 136.303 99.9971 142.73C135.94 149.157 162.332 144.715 181.78 128.335C204.234 109.401 203.347 66.0282 168.987 50.5845C158.252 45.7488 145.47 44.2852 136.066 37.4845C118.108 24.5073 103.584 4.31487 74.7551 0.523032C45.926 -3.26881 26.4893 14.8 26.4893 14.8C2.8137 39.0248 -12.165 78.6063 13.1591 105.748Z" fill="url(#paint0_linear)"/>
</g>
<path d="M110.086 140.105V129.707H77.3135V140.105C77.3083 143.492 76.0811 146.778 73.8304 149.433L72.3955 151.122H115.004L113.569 149.433C111.318 146.778 110.091 143.492 110.086 140.105Z" fill="white" stroke="#2E353A" stroke-linecap="round" stroke-linejoin="round"/>
<path d="M75.2979 147.386H112.101C110.78 145.158 110.086 142.652 110.086 140.105V129.707H77.3133V140.105C77.3126 142.652 76.6191 145.158 75.2979 147.386Z" fill="#25AAE3"/>
<path d="M154.912 40.6776H32.4811C29.9162 40.6776 27.8369 42.6204 27.8369 45.017V128.647C27.8369 131.044 29.9162 132.987 32.4811 132.987H154.912C157.477 132.987 159.556 131.044 159.556 128.647V45.017C159.556 42.6204 157.477 40.6776 154.912 40.6776Z" stroke="#2E353A" stroke-linecap="round" stroke-linejoin="round"/>
<path d="M27.8369 118.638H159.562V128.642C159.562 129.793 159.072 130.897 158.201 131.711C157.33 132.524 156.149 132.982 154.917 132.982H32.4866C31.2549 132.982 30.0736 132.524 29.2026 131.711C28.3317 130.897 27.8424 129.793 27.8424 128.642V118.638H27.8369Z" fill="white" stroke="#2E353A" stroke-linecap="round" stroke-linejoin="round"/>
<path d="M152.471 46.4242H34V111.638H152.471V46.4242Z" fill="white" stroke="#2E353A" stroke-linecap="round" stroke-linejoin="round"/>
<path d="M96.1309 125.812C96.1309 125.363 95.9883 124.924 95.7211 124.55C95.4539 124.176 95.0741 123.885 94.6298 123.713C94.1855 123.541 93.6965 123.496 93.2248 123.584C92.7531 123.672 92.3199 123.888 91.9798 124.206C91.6397 124.523 91.4081 124.928 91.3143 125.369C91.2205 125.81 91.2686 126.267 91.4527 126.682C91.6367 127.097 91.9484 127.452 92.3483 127.701C92.7482 127.951 93.2183 128.084 93.6992 128.084C94.3441 128.084 94.9626 127.845 95.4187 127.419C95.8747 126.993 96.1309 126.415 96.1309 125.812Z" fill="#2E353A" stroke="#2E353A" stroke-linecap="round" stroke-linejoin="round"/>
<path d="M115.009 151.142H72.3955V153H115.009V151.142Z" fill="white" stroke="#2E353A" stroke-linecap="round" stroke-linejoin="round"/>
<path d="M151.823 51.0194H35.3945V56.7353H151.823V51.0194Z" fill="white" stroke="#2E353A" stroke-linecap="round" stroke-linejoin="round"/>
<g clip-path="url(#clip0)">
<path d="M87.0003 87.75L93.5003 81.25L100 87.75M78.8721 66.625H102.438L108.125 72.3125V102.375H78.8753L78.8721 66.625ZM100 66.625V74.75H108.125L100 66.625ZM93.5003 97.5V82.875V97.5Z" stroke="#25AAE3" stroke-width="2"/>
</g>
<defs>
<linearGradient id="paint0_linear" x1="98.5" y1="0" x2="98.5" y2="145.553" gradientUnits="userSpaceOnUse">
<stop stop-color="#25AAE3"/>
<stop offset="1" stop-color="white" stop-opacity="0"/>
</linearGradient>
<clipPath id="clip0">
<rect width="39" height="39" fill="white" transform="translate(74 65)"/>
</clipPath>
</defs>
</svg>
