<svg width="493" height="398" viewBox="0 0 493 398" fill="none" xmlns="http://www.w3.org/2000/svg">
<g opacity="0.7">
<path d="M493.554 139.66C472.282 91.1005 421.223 72.817 380.936 105.421C365.205 118.141 355.389 138.384 336.127 146.507C318.053 154.125 295.156 151.883 275.611 156.009C233.991 164.739 177.956 197.865 182.231 248.907C184.103 271.265 199.168 296.096 206.615 317.016C215.164 341.086 220.294 371.199 242.926 385.588C281.725 410.291 328.526 390.099 363.478 370.18C382.287 359.472 392.641 352.89 412.895 356.562C431.645 359.986 448.531 371.969 466.853 357.752C480.61 347.078 481.747 325.448 493.297 312.745C506.31 298.433 519.503 297.397 526.265 275.887C534.465 249.788 522.384 233.482 514.219 210.166C506.054 186.849 503.574 162.505 493.554 139.66Z" fill="#25AAE3"/>
<path d="M493.554 139.66C472.282 91.1005 421.223 72.817 380.936 105.421C365.205 118.141 355.389 138.384 336.127 146.507C318.053 154.125 295.156 151.883 275.611 156.009C233.991 164.739 177.956 197.865 182.231 248.907C184.103 271.265 199.168 296.096 206.615 317.016C215.164 341.086 220.294 371.199 242.926 385.588C281.725 410.291 328.526 390.099 363.478 370.18C382.287 359.472 392.641 352.89 412.895 356.562C431.645 359.986 448.531 371.969 466.853 357.752C480.61 347.078 481.747 325.448 493.297 312.745C506.31 298.433 519.503 297.397 526.265 275.887C534.465 249.788 522.384 233.482 514.219 210.166C506.054 186.849 503.574 162.505 493.554 139.66Z" fill="url(#paint0_linear)"/>
</g>
<path d="M446.495 372.127H436.854V372.405H446.495V372.127Z" fill="#EBEBEB"/>
<path d="M185.125 360.677H137.205V360.954H185.125V360.677Z" fill="#EBEBEB"/>
<path d="M202.035 360.677H195.012V360.954H202.035V360.677Z" fill="#EBEBEB"/>
<path d="M328.809 365.359H224.869V365.637H328.809V365.359Z" fill="#EBEBEB"/>
<path d="M341.956 301.773H127.73C126.05 301.773 124.438 301.105 123.25 299.917C122.062 298.729 121.395 297.117 121.395 295.437V-5.72011C121.409 -7.39072 122.083 -8.98793 123.27 -10.1641C124.456 -11.3402 126.059 -12.0001 127.73 -12H341.956C343.636 -12 345.248 -11.3325 346.436 -10.1444C347.624 -8.9563 348.292 -7.34488 348.292 -5.66464V295.437C348.292 297.117 347.624 298.729 346.436 299.917C345.248 301.105 343.636 301.773 341.956 301.773ZM127.73 -11.7781C126.124 -11.7752 124.585 -11.136 123.449 -10.0005C122.314 -8.86506 121.675 -7.32589 121.672 -5.72011V295.437C121.675 297.043 122.314 298.582 123.449 299.718C124.585 300.853 126.124 301.492 127.73 301.495H341.956C343.562 301.492 345.101 300.853 346.237 299.718C347.372 298.582 348.011 297.043 348.014 295.437V-5.72011C348.011 -7.32589 347.372 -8.86506 346.237 -10.0005C345.101 -11.136 343.562 -11.7752 341.956 -11.7781H127.73Z" fill="#EBEBEB"/>
<path d="M581.957 301.773H367.708C366.029 301.77 364.419 301.101 363.232 299.914C362.044 298.726 361.376 297.117 361.373 295.437V-5.72011C361.391 -7.38981 362.065 -8.98535 363.251 -10.1609C364.437 -11.3364 366.039 -11.9972 367.708 -12H581.957C583.624 -11.9942 585.221 -11.3318 586.403 -10.1563C587.585 -8.98076 588.256 -7.38689 588.27 -5.72011V295.437C588.27 297.114 587.606 298.722 586.422 299.909C585.239 301.097 583.633 301.767 581.957 301.773ZM367.708 -11.7781C366.103 -11.7752 364.563 -11.136 363.428 -10.0005C362.293 -8.86506 361.653 -7.32589 361.65 -5.72011V295.437C361.653 297.043 362.293 298.582 363.428 299.718C364.563 300.853 366.103 301.492 367.708 301.495H581.957C583.563 301.492 585.102 300.853 586.237 299.718C587.373 298.582 588.012 297.043 588.015 295.437V-5.72011C588.012 -7.32589 587.373 -8.86506 586.237 -10.0005C585.102 -11.136 583.563 -11.7752 581.957 -11.7781H367.708Z" fill="#EBEBEB"/>
<path d="M633.761 351.257H79V351.535H633.761V351.257Z" fill="#EBEBEB"/>
<path d="M442.168 249.248H358.056V339.774H442.168V249.248Z" fill="#E6E6E6"/>
<path d="M455.005 242.513H444.432V351.523H455.005V242.513Z" fill="#E6E6E6"/>
<path d="M378.327 256.382H371.437V290.211H378.327V256.382Z" fill="#FAFAFA"/>
<path d="M406.908 256.382H400.018V290.211H406.908V256.382Z" fill="#F5F5F5"/>
<path d="M385.217 258.756H378.327V290.211H385.217V258.756Z" fill="#F5F5F5"/>
<path d="M400.018 258.756H393.128V290.211H400.018V258.756Z" fill="#FAFAFA"/>
<path d="M393.116 256.382H388.667V290.211H393.116V256.382Z" fill="#EBEBEB"/>
<path d="M388.678 258.756H385.228V290.211H388.678V258.756Z" fill="#FAFAFA"/>
<path d="M413.798 256.382H406.908V290.211H413.798V256.382Z" fill="#EBEBEB"/>
<path d="M420.688 258.756H413.798V290.211H420.688V258.756Z" fill="#E6E6E6"/>
<path d="M435.478 258.756H428.588V290.211H435.478V258.756Z" fill="#E6E6E6"/>
<path d="M428.588 256.382H424.139V290.211H428.588V256.382Z" fill="#FAFAFA"/>
<path d="M424.138 258.756H420.688V290.211H424.138V258.756Z" fill="#EBEBEB"/>
<path d="M438.929 257.181H435.479V290.211H438.929V257.181Z" fill="#FAFAFA"/>
<path d="M432.028 335.557H438.918V301.728H432.028V335.557Z" fill="#FAFAFA"/>
<path d="M403.468 335.557H410.358V301.728H403.468V335.557Z" fill="#FAFAFA"/>
<path d="M425.137 335.546H432.027V304.091H425.137V335.546Z" fill="#F0F0F0"/>
<path d="M410.358 335.546H417.248V304.091H410.358V335.546Z" fill="#EBEBEB"/>
<path d="M417.237 335.557H421.687V301.728H417.237V335.557Z" fill="#FAFAFA"/>
<path d="M421.687 335.546H425.138V304.091H421.687V335.546Z" fill="#F5F5F5"/>
<path d="M396.567 335.557H403.457V301.728H396.567V335.557Z" fill="#EBEBEB"/>
<path d="M389.677 335.546H396.567V304.091H389.677V335.546Z" fill="#F5F5F5"/>
<path d="M374.887 335.546H381.777V304.091H374.887V335.546Z" fill="#E6E6E6"/>
<path d="M381.777 335.557H386.227V301.728H381.777V335.557Z" fill="#FAFAFA"/>
<path d="M366.987 335.557H371.437V301.728H366.987V335.557Z" fill="#FAFAFA"/>
<path d="M386.226 335.546H389.677V304.091H386.226V335.546Z" fill="#EBEBEB"/>
<path d="M371.436 335.546H374.887V302.516H371.436V335.546Z" fill="#F0F0F0"/>
<path d="M441.736 242.513H355.393V345.421H438.917V351.535H444.554V242.513H441.736ZM438.917 335.557H360.707V295.881H438.917V335.557ZM438.917 290.245H360.707V252.388H438.917V290.245Z" fill="#F0F0F0"/>
<path d="M273.798 339.785H357.911V249.259H273.798V339.785Z" fill="#E6E6E6"/>
<path d="M277.039 351.535H287.612V344.323H277.039V351.535Z" fill="#E6E6E6"/>
<path d="M348.192 290.211H355.082V256.382H348.192V290.211Z" fill="#FAFAFA"/>
<path d="M319.622 290.211H326.512V256.382H319.622V290.211Z" fill="#F5F5F5"/>
<path d="M341.291 290.211H348.181V258.756H341.291V290.211Z" fill="#F5F5F5"/>
<path d="M326.512 290.211H333.402V258.756H326.512V290.211Z" fill="#FAFAFA"/>
<path d="M333.402 290.211H337.852V256.382H333.402V290.211Z" fill="#EBEBEB"/>
<path d="M337.851 290.211H341.302V258.756H337.851V290.211Z" fill="#FAFAFA"/>
<path d="M317.258 290.211H324.148V256.382H317.258V290.211Z" fill="#EBEBEB"/>
<path d="M310.369 290.211H317.259V258.756H310.369V290.211Z" fill="#E6E6E6"/>
<path d="M295.589 290.211H302.479V258.756H295.589V290.211Z" fill="#E6E6E6"/>
<path d="M302.48 290.211H306.929V256.382H302.48V290.211Z" fill="#FAFAFA"/>
<path d="M306.929 290.211H310.38V258.756H306.929V290.211Z" fill="#EBEBEB"/>
<path d="M292.128 290.211H295.578V257.181H292.128V290.211Z" fill="#F5F5F5"/>
<path d="M295.79 301.717H288.899V335.546H295.79V301.717Z" fill="#FAFAFA"/>
<path d="M324.371 301.717H317.48V335.546H324.371V301.717Z" fill="#FAFAFA"/>
<path d="M302.679 304.103H295.789V335.557H302.679V304.103Z" fill="#F5F5F5"/>
<path d="M317.469 304.103H310.579V335.557H317.469V304.103Z" fill="#EBEBEB"/>
<path d="M310.579 301.717H306.13V335.546H310.579V301.717Z" fill="#FAFAFA"/>
<path d="M306.13 304.103H302.68V335.557H306.13V304.103Z" fill="#F5F5F5"/>
<path d="M326.711 301.717H319.821V335.546H326.711V301.717Z" fill="#EBEBEB"/>
<path d="M333.602 304.103H326.712V335.557H333.602V304.103Z" fill="#F5F5F5"/>
<path d="M348.392 304.103H341.502V335.557H348.392V304.103Z" fill="#E6E6E6"/>
<path d="M341.502 301.717H337.053V335.546H341.502V301.717Z" fill="#FAFAFA"/>
<path d="M355.382 301.717H350.933V335.546H355.382V301.717Z" fill="#FAFAFA"/>
<path d="M337.052 304.103H333.602V335.557H337.052V304.103Z" fill="#EBEBEB"/>
<path d="M351.854 302.527H348.403V335.558H351.854V302.527Z" fill="#EBEBEB"/>
<path d="M271.413 242.513V351.535H277.049V345.421H360.574V242.513H271.413ZM277.049 295.881H355.271V335.557H277.049V295.881ZM277.049 252.388H355.271V290.245H277.049V252.388Z" fill="#F0F0F0"/>
<path d="M572.204 233.182H490.066V244.843H572.204V233.182Z" fill="#E6E6E6"/>
<path d="M183.717 315.464C183.717 315.464 175.64 277.308 190.374 256.659C205.109 236.011 177.06 256.415 173.853 275.765C173.853 275.765 169.027 241.171 183.295 216.828C197.564 192.485 170.869 212.467 168.605 237.554C168.605 237.554 164.234 206.687 170.824 189.334C177.415 171.981 165.976 183.143 161.593 194.016C157.211 204.889 162.958 231.817 162.958 231.817C162.958 231.817 151.519 182.033 140.69 185.994C129.861 189.955 156.878 222.608 160.661 239.551C160.661 239.551 147.891 216.706 138.204 221.465C128.518 226.225 153.116 228.555 164.434 262.606L168.406 278.572C168.406 278.572 156.667 256.038 148.956 263.161C141.245 270.284 171.745 282.533 178.857 316.685L183.717 315.464Z" fill="#EBEBEB"/>
<path d="M149.854 327.125H219.753V339.33C219.753 342.567 218.467 345.671 216.179 347.96C213.89 350.249 210.786 351.535 207.549 351.535H162.058C158.821 351.535 155.717 350.249 153.428 347.96C151.139 345.671 149.854 342.567 149.854 339.33V327.125Z" fill="#EBEBEB"/>
<path d="M224.236 313.034H145.371C142.792 313.034 140.7 315.125 140.7 317.705V330.221C140.7 332.8 142.792 334.892 145.371 334.892H224.236C226.816 334.892 228.907 332.8 228.907 330.221V317.705C228.907 315.125 226.816 313.034 224.236 313.034Z" fill="#F5F5F5"/>
<path d="M182.186 317.661C182.186 317.661 180.488 269.552 156.667 249.17C132.845 228.788 172.522 244.932 182.186 267.144C182.186 267.144 177.659 224.261 153.338 199.364C129.017 174.466 166.93 190.488 177.115 219.812C177.115 219.812 173.154 181.534 160.139 162.705C147.125 143.877 164.1 153.829 172.588 165.568C181.076 177.307 182.186 211.247 182.186 211.247C182.186 211.247 181.076 148.204 195.211 149.724C209.347 151.244 186.624 198.365 187.223 219.812C187.223 219.812 195.722 188.646 208.736 191.453C221.751 194.26 192.893 204.457 189.486 248.604V268.909C189.486 268.909 196.854 238.419 208.171 244.643C219.488 250.868 186.657 274.6 188.355 317.661H182.186Z" fill="#F5F5F5"/>
<path d="M351.032 397.091C469.843 397.091 566.157 391.468 566.157 384.532C566.157 377.595 469.843 371.972 351.032 371.972C232.222 371.972 135.907 377.595 135.907 384.532C135.907 391.468 232.222 397.091 351.032 397.091Z" fill="#F5F5F5"/>
<path d="M220.109 224.505L204.897 189.223L251.963 168.93L220.109 224.505Z" fill="#25AAE3"/>
<path opacity="0.2" d="M220.109 224.505L204.897 189.223L251.963 168.93L220.109 224.505Z" fill="black"/>
<path d="M290.187 230.985C289.176 233.309 287.718 235.411 285.895 237.172C284.072 238.932 281.92 240.316 279.562 241.245C277.205 242.174 274.687 242.629 272.153 242.585C269.619 242.541 267.119 241.998 264.795 240.987C262.471 239.977 260.369 238.519 258.609 236.696C256.848 234.873 255.464 232.721 254.535 230.363C253.606 228.005 253.151 225.488 253.195 222.954C253.24 220.42 253.782 217.92 254.793 215.596L290.187 230.985Z" fill="#25AAE3"/>
<path d="M278.858 216.395H276.195V205.466C276.192 205.011 276.01 204.575 275.688 204.253C275.366 203.931 274.931 203.749 274.475 203.746H266.598C265.43 203.746 264.31 203.286 263.479 202.466C262.648 201.646 262.174 200.531 262.16 199.364V191.486C262.157 191.031 261.975 190.595 261.653 190.273C261.331 189.951 260.895 189.769 260.44 189.766H252.562C251.404 189.752 250.298 189.286 249.479 188.467C248.66 187.648 248.194 186.542 248.18 185.384V177.506C248.177 177.051 247.995 176.615 247.673 176.293C247.351 175.971 246.915 175.789 246.46 175.786H238.582C237.415 175.772 236.3 175.298 235.48 174.467C234.66 173.636 234.2 172.516 234.2 171.348V163.471C234.197 163.014 234.013 162.576 233.689 162.254C233.365 161.932 232.926 161.751 232.469 161.751H221.507V159.088H232.469C233.636 159.088 234.757 159.548 235.588 160.368C236.418 161.189 236.892 162.303 236.907 163.471V171.348C236.906 171.575 236.949 171.799 237.035 172.008C237.121 172.218 237.247 172.408 237.407 172.568C237.567 172.728 237.758 172.854 237.967 172.94C238.176 173.026 238.4 173.07 238.627 173.068H246.538C247.705 173.068 248.826 173.528 249.656 174.348C250.487 175.169 250.961 176.283 250.976 177.451V185.328C250.974 185.555 251.018 185.779 251.104 185.988C251.19 186.197 251.316 186.388 251.476 186.548C251.636 186.708 251.826 186.834 252.036 186.92C252.245 187.006 252.469 187.05 252.695 187.048H260.573C261.74 187.063 262.855 187.537 263.675 188.367C264.496 189.198 264.956 190.319 264.956 191.486V199.364C264.954 199.59 264.998 199.814 265.084 200.024C265.169 200.233 265.296 200.423 265.456 200.583C265.616 200.743 265.806 200.87 266.016 200.956C266.225 201.042 266.449 201.085 266.675 201.084H274.553C275.72 201.098 276.835 201.572 277.655 202.403C278.476 203.234 278.936 204.354 278.936 205.522L278.858 216.395Z" fill="#25AAE3"/>
<g opacity="0.5">
<path opacity="0.5" d="M278.858 216.395H276.195V205.466C276.192 205.011 276.01 204.575 275.688 204.253C275.366 203.931 274.931 203.749 274.475 203.746H266.598C265.43 203.746 264.31 203.286 263.479 202.466C262.648 201.646 262.174 200.531 262.16 199.364V191.486C262.157 191.031 261.975 190.595 261.653 190.273C261.331 189.951 260.895 189.769 260.44 189.766H252.562C251.404 189.752 250.298 189.286 249.479 188.467C248.66 187.648 248.194 186.542 248.18 185.384V177.506C248.177 177.051 247.995 176.615 247.673 176.293C247.351 175.971 246.915 175.789 246.46 175.786H238.582C237.415 175.772 236.3 175.298 235.48 174.467C234.66 173.636 234.2 172.516 234.2 171.348V163.471C234.197 163.014 234.013 162.576 233.689 162.254C233.365 161.932 232.926 161.751 232.469 161.751H221.507V159.088H232.469C233.636 159.088 234.757 159.548 235.588 160.368C236.418 161.189 236.892 162.303 236.907 163.471V171.348C236.906 171.575 236.949 171.799 237.035 172.008C237.121 172.218 237.247 172.408 237.407 172.568C237.567 172.728 237.758 172.854 237.967 172.94C238.176 173.026 238.4 173.07 238.627 173.068H246.538C247.705 173.068 248.826 173.528 249.656 174.348C250.487 175.169 250.961 176.283 250.976 177.451V185.328C250.974 185.555 251.018 185.779 251.104 185.988C251.19 186.197 251.316 186.388 251.476 186.548C251.636 186.708 251.826 186.834 252.036 186.92C252.245 187.006 252.469 187.05 252.695 187.048H260.573C261.74 187.063 262.855 187.537 263.675 188.367C264.496 189.198 264.956 190.319 264.956 191.486V199.364C264.954 199.59 264.998 199.814 265.084 200.024C265.169 200.233 265.296 200.423 265.456 200.583C265.616 200.743 265.806 200.87 266.016 200.956C266.225 201.042 266.449 201.085 266.675 201.084H274.553C275.72 201.098 276.835 201.572 277.655 202.403C278.476 203.234 278.936 204.354 278.936 205.522L278.858 216.395Z" fill="white"/>
</g>
<path d="M317.07 183.931L298.444 165.306L279.819 183.931L298.444 202.556L317.07 183.931Z" fill="#25AAE3"/>
<path opacity="0.2" d="M317.07 183.931L298.444 165.306L279.819 183.931L298.444 202.556L317.07 183.931Z" fill="white"/>
<path d="M383.941 88.2229C379.747 73.5439 376.174 55.3478 360.83 58.865C352.453 60.7955 354.716 49.0457 355.282 44.9848C355.848 40.924 360.364 37.2848 363.992 39.182C365.578 40.0142 366.588 41.6452 368.03 42.7103C371.614 45.3399 376.995 43.6645 379.924 40.3249C382.854 36.9852 383.996 32.4916 385.184 28.2089C386.371 23.9261 387.846 19.4659 391.197 16.5478C393.309 14.6841 396.003 13.6136 398.818 13.5199C401.633 13.4262 404.393 14.3152 406.624 16.0344C408.855 17.7535 410.418 20.1955 411.045 22.9414C411.671 25.6872 411.323 28.5656 410.059 31.0826C416.15 30.4834 420.988 25.7125 424.583 20.7529C428.178 15.7933 431.24 10.2236 436.155 6.59542C441.07 2.96729 448.804 2.06858 452.909 6.59542C457.291 11.4329 455.128 19.4437 450.778 24.3478C446.429 29.2518 440.393 32.3807 436.022 37.2737C431.65 42.1667 429.298 50.0443 433.537 55.026C436.765 58.8206 442.302 59.2977 447.128 60.5736C451.955 61.8496 457.114 64.6345 459.133 69.3388C461.152 74.0432 458.789 80.7114 453.73 81.5436C447.96 82.4978 443.855 76.2955 441.092 71.1363C438.33 65.977 433.181 60.1631 427.778 62.3599C422.131 64.6456 422.807 72.8671 425.06 78.5368C427.614 84.99 430.893 91.1318 434.835 96.8439C437.464 100.661 440.382 105.72 437.686 109.481C434.635 113.631 427.589 111.079 424.993 106.641C421.154 99.9838 421.665 84.1731 410.314 85.3603C407.352 85.671 404.878 88.8109 401.982 89.6098C396.8 91.0078 385.361 93.1935 383.941 88.2229Z" fill="#25AAE3"/>
<path opacity="0.1" d="M383.941 88.2229C379.747 73.5439 376.174 55.3478 360.83 58.865C352.453 60.7955 354.716 49.0457 355.282 44.9848C355.848 40.924 360.364 37.2848 363.992 39.182C365.578 40.0142 366.588 41.6452 368.03 42.7103C371.614 45.3399 376.995 43.6645 379.924 40.3249C382.854 36.9852 383.996 32.4916 385.184 28.2089C386.371 23.9261 387.846 19.4659 391.197 16.5478C393.309 14.6841 396.003 13.6136 398.818 13.5199C401.633 13.4262 404.393 14.3152 406.624 16.0344C408.855 17.7535 410.418 20.1955 411.045 22.9414C411.671 25.6872 411.323 28.5656 410.059 31.0826C416.15 30.4834 420.988 25.7125 424.583 20.7529C428.178 15.7933 431.24 10.2236 436.155 6.59542C441.07 2.96729 448.804 2.06858 452.909 6.59542C457.291 11.4329 455.128 19.4437 450.778 24.3478C446.429 29.2518 440.393 32.3807 436.022 37.2737C431.65 42.1667 429.298 50.0443 433.537 55.026C436.765 58.8206 442.302 59.2977 447.128 60.5736C451.955 61.8496 457.114 64.6345 459.133 69.3388C461.152 74.0432 458.789 80.7114 453.73 81.5436C447.96 82.4978 443.855 76.2955 441.092 71.1363C438.33 65.977 433.181 60.1631 427.778 62.3599C422.131 64.6456 422.807 72.8671 425.06 78.5368C427.614 84.99 430.893 91.1318 434.835 96.8439C437.464 100.661 440.382 105.72 437.686 109.481C434.635 113.631 427.589 111.079 424.993 106.641C421.154 99.9838 421.665 84.1731 410.314 85.3603C407.352 85.671 404.878 88.8109 401.982 89.6098C396.8 91.0078 385.361 93.1935 383.941 88.2229Z" fill="white"/>
<path d="M476.908 50.1331C476.82 50.6136 476.835 51.1071 476.952 51.5813C477.068 52.0556 477.284 52.4998 477.585 52.8847C477.854 53.2667 478.205 53.5842 478.611 53.8144C479.018 54.0446 479.471 54.1818 479.937 54.2161C480.909 54.108 481.817 53.6743 482.512 52.9855C483.206 52.2966 483.648 51.3931 483.765 50.4216C483.745 49.94 483.606 49.4709 483.36 49.0564C483.114 48.642 482.769 48.2952 482.356 48.0472C481.876 47.7467 481.334 47.5617 480.771 47.5068C480.208 47.452 479.64 47.5287 479.111 47.731C478.583 47.9333 478.109 48.2556 477.726 48.6724C477.344 49.0893 477.064 49.5894 476.908 50.1331Z" fill="#25AAE3"/>
<path d="M457.28 108.083C457.217 108.439 457.229 108.803 457.317 109.153C457.405 109.503 457.566 109.831 457.79 110.114C457.984 110.414 458.245 110.665 458.554 110.846C458.862 111.028 459.209 111.134 459.565 111.157C459.943 111.139 460.312 111.043 460.65 110.875C460.988 110.707 461.288 110.471 461.529 110.18C462.037 109.7 462.346 109.047 462.395 108.35C462.379 107.994 462.276 107.648 462.094 107.342C461.912 107.036 461.657 106.78 461.352 106.597C460.999 106.369 460.598 106.226 460.181 106.18C459.763 106.133 459.341 106.184 458.946 106.328C458.552 106.472 458.196 106.705 457.907 107.01C457.618 107.314 457.403 107.682 457.28 108.083Z" fill="#25AAE3"/>
<path d="M404.312 2.87861C404.041 4.55047 404.392 6.26364 405.299 7.69393C405.641 8.32702 406.13 8.86894 406.725 9.27432C407.319 9.6797 408.002 9.93674 408.717 10.0239C409.497 9.95564 410.251 9.71029 410.922 9.30652C411.593 8.90276 412.163 8.35124 412.589 7.69393C413.619 6.4852 414.213 4.96504 414.275 3.37789C414.266 2.57782 414.077 1.79002 413.724 1.07207C413.371 0.35412 412.862 -0.275823 412.234 -0.771714C409.405 -2.92418 405.088 -1.271 404.312 2.87861Z" fill="#25AAE3"/>
<path d="M459 15.1165C458.813 16.0849 458.838 17.0825 459.073 18.0403C459.309 18.9981 459.75 19.8934 460.365 20.6641C460.914 21.4258 461.624 22.0566 462.445 22.5112C463.266 22.9658 464.177 23.2331 465.114 23.2937C467.042 23.0635 468.838 22.1945 470.216 20.8252C471.593 19.4559 472.473 17.665 472.714 15.7378C472.673 14.7764 472.396 13.84 471.906 13.0116C471.416 12.1833 470.73 11.4885 469.907 10.9891C466.002 8.49268 460.066 10.3789 459 15.1165Z" fill="#25AAE3"/>
<path opacity="0.1" d="M459 15.1165C458.813 16.0849 458.838 17.0825 459.073 18.0403C459.309 18.9981 459.75 19.8934 460.365 20.6641C460.914 21.4258 461.624 22.0566 462.445 22.5112C463.266 22.9658 464.177 23.2331 465.114 23.2937C467.042 23.0635 468.838 22.1945 470.216 20.8252C471.593 19.4559 472.473 17.665 472.714 15.7378C472.673 14.7764 472.396 13.84 471.906 13.0116C471.416 12.1833 470.73 11.4885 469.907 10.9891C466.002 8.49268 460.066 10.3789 459 15.1165Z" fill="white"/>
<path d="M328.121 47.0264C328.121 47.0264 329.686 1.33637 346.983 4.2877C364.28 7.23902 328.121 47.0264 328.121 47.0264Z" fill="#25AAE3"/>
<path d="M315.539 34.9548C315.539 34.9548 288.699 14.0514 296.821 6.65089C304.943 -0.749615 315.539 34.9548 315.539 34.9548Z" fill="#25AAE3"/>
<path opacity="0.5" d="M315.539 34.9548C315.539 34.9548 288.699 14.0514 296.821 6.65089C304.943 -0.749615 315.539 34.9548 315.539 34.9548Z" fill="white"/>
<path d="M303.922 124.693C303.922 124.693 315.583 98.4528 325.28 104.722C334.977 110.99 303.922 124.693 303.922 124.693Z" fill="#25AAE3"/>
<path opacity="0.2" d="M303.922 124.693C303.922 124.693 315.583 98.4528 325.28 104.722C334.977 110.99 303.922 124.693 303.922 124.693Z" fill="black"/>
<path d="M252.984 126.79C252.984 126.79 240.857 111.767 235.642 117.503C230.427 123.239 252.984 126.79 252.984 126.79Z" fill="#25AAE3"/>
<path opacity="0.5" d="M252.984 126.79C252.984 126.79 240.857 111.767 235.642 117.503C230.427 123.239 252.984 126.79 252.984 126.79Z" fill="white"/>
<path d="M315.828 67.4528C315.149 61.7106 313.347 56.1582 310.523 51.1126C307.699 46.0671 303.908 41.6272 299.369 38.0464C294.829 34.4657 289.628 31.8142 284.063 30.2433C278.498 28.6725 272.679 28.2131 266.937 28.8914C261.194 29.5696 255.642 31.3723 250.597 34.1963C245.551 37.0204 241.111 40.8106 237.53 45.3506C233.95 49.8905 231.298 55.0913 229.727 60.656C228.156 66.2206 227.697 72.0402 228.375 77.7824C230.45 95.2907 245.784 105.52 256.235 118.335C259.475 122.308 261.073 138.407 261.073 138.407L298.153 134.024C298.153 134.024 295.934 117.991 298.153 113.376C305.343 98.475 317.891 84.9721 315.828 67.4528Z" fill="#25AAE3"/>
<path d="M261.376 140.868L298.464 136.485L298.791 139.251C299.038 141.337 298.445 143.436 297.144 145.086C295.843 146.736 293.94 147.801 291.854 148.048L270.5 150.571C268.413 150.818 266.314 150.226 264.665 148.925C263.015 147.624 261.949 145.72 261.703 143.634L261.376 140.868Z" fill="#263238"/>
<path d="M272.777 152.861L290.109 150.815L290.204 151.62C290.45 153.706 289.858 155.805 288.556 157.455C287.255 159.104 285.352 160.169 283.265 160.415L281.656 160.605C279.57 160.852 277.471 160.259 275.821 158.957C274.172 157.656 273.107 155.753 272.861 153.666L272.766 152.862L272.777 152.861Z" fill="#263238"/>
<path opacity="0.5" d="M272.777 152.861L290.109 150.815L290.204 151.62C290.45 153.706 289.858 155.805 288.556 157.455C287.255 159.104 285.352 160.169 283.265 160.415L281.656 160.605C279.57 160.852 277.471 160.259 275.821 158.957C274.172 157.656 273.107 155.753 272.861 153.666L272.766 152.862L272.777 152.861Z" fill="white"/>
<path d="M315.828 67.4528C314.814 58.8614 311.293 50.7589 305.703 44.1566C300.113 37.5543 292.702 32.7447 284.395 30.3282C274.065 29.3296 258.355 28.8747 259.131 35.4209C260.241 45.1403 281.932 38.4499 287.435 43.2541C292.938 48.0584 272.878 60.5849 279.89 65.2892C286.903 69.9936 298.908 56.8901 298.908 56.8901C298.908 56.8901 295.845 75.2638 301.127 75.9406C306.408 76.6174 304.111 62.1271 307.451 61.7277C310.791 61.3282 315.317 68.4625 313.165 85.3605C315.53 79.7062 316.446 73.5506 315.828 67.4528Z" fill="#25AAE3"/>
<path opacity="0.5" d="M315.828 67.4528C314.814 58.8614 311.293 50.7589 305.703 44.1566C300.113 37.5543 292.702 32.7447 284.395 30.3282C274.065 29.3296 258.355 28.8747 259.131 35.4209C260.241 45.1403 281.932 38.4499 287.435 43.2541C292.938 48.0584 272.878 60.5849 279.89 65.2892C286.903 69.9936 298.908 56.8901 298.908 56.8901C298.908 56.8901 295.845 75.2638 301.127 75.9406C306.408 76.6174 304.111 62.1271 307.451 61.7277C310.791 61.3282 315.317 68.4625 313.165 85.3605C315.53 79.7062 316.446 73.5506 315.828 67.4528Z" fill="white"/>
<path d="M290.652 70.4929C290.652 70.4929 274.276 77.96 279.014 83.8626C283.751 89.7653 290.652 70.4929 290.652 70.4929Z" fill="#25AAE3"/>
<path opacity="0.7" d="M290.652 70.4929C290.652 70.4929 274.276 77.96 279.014 83.8626C283.751 89.7653 290.652 70.4929 290.652 70.4929Z" fill="white"/>
<path d="M242.965 30.3726C240.559 32.1446 238.3 34.1074 236.208 36.242C235.842 36.6303 236.43 37.2183 236.796 36.83C238.833 34.7459 241.034 32.8277 243.376 31.0938C243.809 30.772 243.376 30.0508 242.965 30.3726Z" fill="#25AAE3"/>
<path d="M229.984 44.0197C223.411 54.3175 220.535 66.5443 221.829 78.6923C221.885 79.2138 222.717 79.2249 222.661 78.6923C221.375 66.6931 224.212 54.6136 230.705 44.4414C230.994 43.9865 230.273 43.5759 229.984 44.0197Z" fill="#25AAE3"/>
<g opacity="0.7">
<path opacity="0.7" d="M261.376 140.868L298.464 136.485L298.791 139.251C299.038 141.337 298.445 143.436 297.144 145.086C295.843 146.736 293.94 147.801 291.854 148.048L270.5 150.572C268.413 150.818 266.314 150.226 264.665 148.925C263.015 147.624 261.949 145.721 261.703 143.634L261.376 140.868Z" fill="white"/>
</g>
<path d="M430.83 270.428L454.541 263.927L459.8 272.758L437.887 282.178L430.83 270.428Z" fill="#FFB573"/>
<path d="M461.231 276.864C461.83 278.073 462.23 279.427 461.919 280.092C461.819 280.268 461.667 280.408 461.484 280.493C461.301 280.579 461.097 280.605 460.898 280.57C460.726 280.557 460.558 280.51 460.403 280.432C460.249 280.354 460.112 280.246 459.999 280.115C458.746 278.717 458.99 274.345 459.001 274.156C459.003 274.104 459.021 274.054 459.053 274.012C459.085 273.97 459.128 273.939 459.178 273.924C459.231 273.91 459.286 273.912 459.338 273.93C459.389 273.948 459.434 273.98 459.467 274.023C460.135 274.918 460.725 275.868 461.231 276.864ZM460.121 279.349C460.186 279.503 460.28 279.642 460.399 279.76C460.46 279.848 460.541 279.921 460.636 279.973C460.73 280.025 460.835 280.054 460.942 280.059C461.32 280.059 461.42 279.959 461.464 279.848C461.874 279.083 460.665 276.62 459.533 274.922C459.441 276.421 459.637 277.924 460.11 279.349H460.121Z" fill="#25AAE3"/>
<path d="M459.477 274.057C459.487 274.089 459.487 274.124 459.477 274.157C459.533 275.577 458.589 278.972 457.391 279.316C457.125 279.416 456.703 279.382 456.282 278.772C456.144 278.555 456.051 278.313 456.009 278.059C455.967 277.806 455.977 277.546 456.038 277.296C456.437 275.543 458.933 273.968 459.055 273.901C459.095 273.88 459.138 273.869 459.183 273.869C459.228 273.869 459.271 273.88 459.311 273.901C459.348 273.914 459.382 273.934 459.41 273.961C459.439 273.988 459.462 274.02 459.477 274.057ZM456.725 278.406L456.781 278.539C457.025 278.939 457.203 278.883 457.269 278.872C457.957 278.606 458.845 276.242 458.956 274.678C457.91 275.347 457.094 276.318 456.614 277.463C456.533 277.78 456.573 278.116 456.725 278.406Z" fill="#25AAE3"/>
<path d="M457.603 273.702L452.299 263.072C452.201 262.879 452.173 262.657 452.219 262.444C452.266 262.232 452.384 262.042 452.554 261.907L460.243 255.672C460.567 255.408 460.981 255.282 461.396 255.322C461.811 255.361 462.194 255.563 462.462 255.883C462.535 255.972 462.599 256.069 462.651 256.171C464.493 260.032 465.979 263.549 468.376 268.309C471.183 273.935 471.15 272.17 474.545 278.75C476.586 282.711 472.415 285.695 471.35 284.12C466.512 276.864 463.783 277.23 459.522 275.632C458.671 275.24 457.989 274.555 457.603 273.702Z" fill="#263238"/>
<path opacity="0.1" d="M447.284 278.14L452.433 275.921L448.727 265.525L443.812 266.867L447.284 278.14Z" fill="black"/>
<path d="M380.479 299.154L403.801 306.932L403.258 317.195L379.813 312.846L380.479 299.154Z" fill="#FFB573"/>
<path d="M402.17 321.389C402.004 322.731 401.582 324.085 400.95 324.462C400.771 324.553 400.567 324.587 400.369 324.557C400.17 324.527 399.985 324.436 399.84 324.296C399.703 324.19 399.589 324.058 399.503 323.907C399.417 323.757 399.362 323.591 399.341 323.419C399.075 321.555 401.704 318.06 401.815 317.872C401.849 317.829 401.894 317.798 401.946 317.782C401.997 317.767 402.052 317.767 402.104 317.783C402.154 317.799 402.198 317.83 402.229 317.871C402.261 317.913 402.279 317.963 402.281 318.016C402.346 319.141 402.309 320.27 402.17 321.389ZM399.852 322.842C399.829 323.008 399.829 323.176 399.852 323.342C399.859 323.449 399.889 323.553 399.941 323.647C399.993 323.741 400.064 323.822 400.151 323.885C400.44 324.118 400.606 324.063 400.706 324.007C401.471 323.597 401.815 320.878 401.815 318.837C400.916 320.037 400.25 321.396 399.852 322.842Z" fill="#25AAE3"/>
<path d="M402.281 318.093C402.287 318.127 402.287 318.16 402.281 318.193C401.538 319.414 398.864 321.711 397.688 321.322C397.4 321.256 397.067 321 397.089 320.279C397.095 320.023 397.152 319.77 397.257 319.535C397.361 319.301 397.512 319.09 397.699 318.914C399.008 317.683 401.96 317.805 402.137 317.805C402.184 317.806 402.229 317.821 402.268 317.846C402.308 317.872 402.339 317.907 402.359 317.949C402.346 318.003 402.319 318.053 402.281 318.093ZM397.566 320.168V320.313C397.566 320.779 397.721 320.834 397.788 320.867C398.509 321.023 400.562 319.558 401.516 318.315C400.276 318.295 399.059 318.647 398.021 319.325C397.786 319.549 397.633 319.846 397.588 320.168H397.566Z" fill="#25AAE3"/>
<path d="M400.917 316.751L402.415 304.968C402.442 304.753 402.541 304.553 402.696 304.402C402.852 304.251 403.054 304.157 403.27 304.136L413.133 303.226C413.341 303.206 413.55 303.227 413.75 303.288C413.949 303.35 414.135 303.45 414.296 303.583C414.456 303.715 414.589 303.879 414.687 304.063C414.784 304.248 414.845 304.449 414.864 304.657C414.875 304.768 414.875 304.879 414.864 304.99C414.254 309.228 413.544 312.979 412.878 318.304C412.079 324.551 413.033 323.064 412.201 330.409C411.702 334.847 406.576 335.014 406.565 333.105C406.565 324.384 404.102 323.12 401.45 319.469C400.94 318.661 400.751 317.692 400.917 316.751Z" fill="#263238"/>
<path opacity="0.1" d="M387.78 314.321L393.383 315.353L395.625 304.202L391.253 302.749L387.78 314.321Z" fill="black"/>
<path d="M337.164 186.504C337.164 186.504 327.311 203.89 315.107 244.943C302.902 285.995 311.035 300.053 349.502 309.295L386.482 314.843L389.444 301.528C389.444 301.528 358.245 286.572 340.16 280.27C339.668 280.103 339.218 279.834 338.839 279.48C338.46 279.126 338.161 278.695 337.962 278.217C337.762 277.738 337.667 277.222 337.683 276.704C337.698 276.186 337.824 275.676 338.051 275.21C344.087 262.895 363.038 222.73 369.839 190.576L337.164 186.504Z" fill="#25AAE3"/>
<path opacity="0.1" d="M337.164 186.504C337.164 186.504 327.311 203.89 315.107 244.943C302.902 285.995 311.035 300.053 349.502 309.295L386.482 314.843L389.444 301.528C389.444 301.528 357.956 286.461 339.904 280.181C339.444 280.026 339.023 279.774 338.668 279.442C338.313 279.11 338.033 278.707 337.847 278.258C337.661 277.809 337.573 277.326 337.589 276.841C337.605 276.355 337.725 275.879 337.941 275.443C343.843 263.416 362.994 222.941 369.839 190.576L337.164 186.504Z" fill="black"/>
<path d="M388.823 299.498L384.585 316.141C384.585 316.141 386.804 318.637 389.445 317.461L393.117 300.463C392.924 300.091 392.653 299.765 392.32 299.509C391.988 299.253 391.604 299.072 391.195 298.98C390.786 298.888 390.362 298.887 389.952 298.976C389.542 299.066 389.157 299.244 388.823 299.498Z" fill="#25AAE3"/>
<path opacity="0.6" d="M388.823 299.498L384.585 316.141C384.585 316.141 386.804 318.637 389.445 317.461L393.117 300.463C392.924 300.091 392.653 299.765 392.32 299.509C391.988 299.253 391.604 299.072 391.195 298.98C390.786 298.888 390.362 298.887 389.952 298.976C389.542 299.066 389.157 299.244 388.823 299.498Z" fill="white"/>
<path d="M346.906 199.452C348.326 219.302 355.05 256.038 360.598 277.862C366.145 299.686 380.935 304.113 396.468 301.162C412.002 298.211 437.155 283.41 447.873 280.081L443.434 265.657C443.434 265.657 408.618 272.448 393.806 279.16C393.34 279.37 392.829 279.46 392.319 279.421C391.81 279.382 391.318 279.216 390.89 278.938C390.461 278.659 390.11 278.278 389.867 277.828C389.624 277.379 389.498 276.875 389.501 276.364C389.501 260.376 388.391 211.746 374.278 190.576L346.906 187.714C346.906 187.714 346.706 196.523 346.906 199.452Z" fill="#25AAE3"/>
<path d="M440.571 264.725L446.208 281.923C447.004 282.066 447.824 282.015 448.597 281.774C449.369 281.532 450.072 281.108 450.646 280.536L445.009 263.527C444.252 263.144 443.38 263.055 442.561 263.276C441.741 263.497 441.033 264.013 440.571 264.725Z" fill="#25AAE3"/>
<path opacity="0.6" d="M440.571 264.725L446.208 281.923C447.004 282.066 447.824 282.015 448.597 281.774C449.369 281.532 450.072 281.108 450.646 280.536L445.009 263.527C444.252 263.144 443.38 263.055 442.561 263.276C441.741 263.497 441.033 264.013 440.571 264.725Z" fill="white"/>
<path d="M352.275 119.378L348.947 102.136C348.803 101.441 348.803 100.724 348.947 100.028L357.823 66.1213L362.172 61.4835C362.765 60.778 363.091 59.8865 363.093 58.9649V56.0468C363.092 55.6209 363.159 55.1975 363.293 54.7931L364.147 52.3521C364.313 51.8599 364.379 51.3396 364.341 50.8216C364.303 50.3036 364.162 49.7984 363.926 49.3356C363.691 48.8727 363.365 48.4615 362.969 48.126C362.572 47.7904 362.113 47.5373 361.618 47.3815L361.085 47.2151C360.587 47.0574 360.062 47.0017 359.541 47.0512C359.021 47.1008 358.516 47.2546 358.056 47.5035L352.93 50.2884C352.341 50.6109 351.846 51.0793 351.49 51.6485C351.134 52.2178 350.931 52.8689 350.9 53.5393L350.445 63.525C350.445 63.525 334.911 92.3726 335.832 102.17C336.753 111.967 341.38 126.668 341.38 126.668C343.668 126.485 345.87 125.72 347.778 124.443C349.685 123.167 351.234 121.423 352.275 119.378Z" fill="#FFB573"/>
<path d="M398.876 129.187L415.33 118.457L427.912 86.2813L426.67 80.5562C426.511 79.8331 426.618 79.0774 426.969 78.4259L428.689 75.1861C428.956 74.6848 429.354 74.2652 429.84 73.9722C430.327 73.6791 430.884 73.5234 431.452 73.5218H431.829C432.422 73.5225 433.004 73.3531 433.504 73.0336L435.424 71.8243C435.788 71.5936 436.196 71.4406 436.622 71.375C437.048 71.3093 437.483 71.3325 437.9 71.4429C438.316 71.5533 438.706 71.7487 439.043 72.0167C439.381 72.2847 439.66 72.6196 439.862 73.0004L442.647 80.3454C442.982 80.9782 443.089 81.7067 442.952 82.4094C442.815 83.1121 442.441 83.7464 441.892 84.2065L435.69 90.3533C435.69 90.3533 429.388 123.073 426.059 126.69C422.731 130.307 404.601 139.361 404.601 139.361L398.876 129.187Z" fill="#FFB573"/>
<path d="M357.823 127.7L355.271 119.012C355.271 119.012 357.124 115.129 353.796 115.129C347.295 117.108 341.627 121.171 337.663 126.69C337.663 126.69 335.999 130.307 338.773 130.485L341.546 143.244C341.546 143.244 358.001 136.398 357.823 127.7Z" fill="#263238"/>
<path d="M382.787 131.96C382.787 131.96 394.437 128.798 396.656 126.679C396.656 126.679 397.866 123.506 400.085 123.872C402.304 124.238 407.374 132.138 407.374 140.093C407.374 140.093 407.374 144.165 404.046 142.123C404.046 142.123 397.577 146.75 385.739 150.267C385.739 150.267 378.349 138.795 382.787 131.96Z" fill="#263238"/>
<path d="M367.043 133.769C371.903 134.435 376.752 132.892 379.903 131.55C380.135 131.213 380.304 130.837 380.402 130.44C376.907 125.891 379.37 117.47 381.423 111.789L368.697 119.633C369.129 124.371 368.896 127.067 362.039 127.611C361.501 127.999 361.048 128.494 360.708 129.064C361.407 131.128 363.038 133.225 367.043 133.769Z" fill="#FFB573"/>
<path opacity="0.2" d="M376.264 114.962L368.774 119.667C368.897 120.772 368.919 121.886 368.841 122.995C371.404 122.995 375.676 121.509 376.608 118.868C376.823 117.558 376.705 116.215 376.264 114.962Z" fill="black"/>
<path d="M375.443 84.5282C375.443 84.5282 362.494 82.7197 364.059 88.7555C365.623 94.7913 375.443 84.5282 375.443 84.5282Z" fill="#263238"/>
<path opacity="0.5" d="M375.443 84.5282C375.443 84.5282 362.494 82.7197 364.059 88.7555C365.623 94.7913 375.443 84.5282 375.443 84.5282Z" fill="black"/>
<path d="M391.708 86.1814C391.065 83.8846 389.489 77.4605 392.818 76.817C398.654 75.7075 399.83 82.2647 399.83 82.2647C399.83 82.2647 408.074 82.1205 402.903 89.754C402.903 89.754 406.165 95.9895 399.22 95.3016C395.115 94.8356 392.474 88.8664 391.708 86.1814Z" fill="#263238"/>
<path opacity="0.2" d="M391.708 86.1814C391.065 83.8846 389.489 77.4605 392.818 76.817C398.654 75.7075 399.83 82.2647 399.83 82.2647C399.83 82.2647 408.074 82.1205 402.903 89.754C402.903 89.754 406.165 95.9895 399.22 95.3016C395.115 94.8356 392.474 88.8664 391.708 86.1814Z" fill="black"/>
<path d="M389.666 86.004C389.666 86.004 393.194 83.0304 395.835 86.8916C398.476 90.7527 393.616 93.5487 393.616 93.5487C393.616 93.5487 392.307 87.8569 389.666 86.004Z" fill="#25AAE3"/>
<path d="M382.354 115.218C382.354 115.218 384.352 120.421 381.833 120.577C379.314 120.732 382.732 118.657 382.354 115.218Z" fill="#263238"/>
<path d="M390.654 102.924C386.538 112.144 384.984 116.116 378.449 119.156C368.541 123.739 358.123 116.649 359.41 106.397C360.586 97.1657 367.177 83.5962 377.784 83.3854C380.129 83.3146 382.453 83.8443 384.537 84.9242C386.62 86.0041 388.392 87.5984 389.686 89.5558C390.98 91.5132 391.752 93.7687 391.929 96.1084C392.106 98.448 391.683 100.794 390.699 102.924H390.654Z" fill="#FFB573"/>
<path d="M366.023 96.4889C365.723 97.2656 365.08 97.7205 364.592 97.543C364.103 97.3654 363.915 96.5666 364.192 95.801C364.469 95.0354 365.135 94.5694 365.623 94.7692C366.112 94.9689 366.3 95.7233 366.023 96.4889Z" fill="#263238"/>
<path d="M365.834 94.8911L364.147 93.6595C364.147 93.6595 364.591 95.457 365.834 94.8911Z" fill="#263238"/>
<path d="M366.843 100.062C365.497 101.556 363.951 102.859 362.25 103.934C362.541 104.357 362.92 104.714 363.36 104.98C363.8 105.246 364.291 105.415 364.802 105.476L366.843 100.062Z" fill="#ED893E"/>
<path d="M379.314 98.2863C379.211 98.287 379.111 98.2552 379.027 98.1954C378.944 98.1356 378.881 98.051 378.848 97.9535C378.514 97.2451 378.036 96.6133 377.447 96.0979C376.857 95.5824 376.167 95.1943 375.42 94.9577C375.358 94.9412 375.3 94.9123 375.25 94.873C375.199 94.8336 375.157 94.7846 375.126 94.7287C375.095 94.6728 375.076 94.6112 375.069 94.5476C375.062 94.4841 375.068 94.4198 375.087 94.3586C375.103 94.2983 375.132 94.2419 375.171 94.1928C375.21 94.1437 375.258 94.103 375.313 94.0729C375.368 94.0429 375.428 94.0242 375.49 94.018C375.552 94.0118 375.615 94.0182 375.675 94.0369C376.574 94.3153 377.402 94.7833 378.105 95.4091C378.807 96.035 379.367 96.8043 379.747 97.665C379.766 97.7247 379.773 97.7876 379.768 97.8501C379.762 97.9125 379.745 97.9733 379.716 98.0289C379.687 98.0846 379.647 98.134 379.599 98.1743C379.551 98.2147 379.496 98.2452 379.436 98.2641C379.399 98.2836 379.356 98.2913 379.314 98.2863Z" fill="#263238"/>
<path d="M364.89 91.2408C364.784 91.2175 364.689 91.1585 364.621 91.0738C364.553 90.989 364.516 90.8835 364.516 90.7748C364.516 90.666 364.553 90.5605 364.621 90.4758C364.689 90.391 364.784 90.3321 364.89 90.3088C365.644 90.1235 366.431 90.1279 367.183 90.3215C367.934 90.5151 368.625 90.892 369.195 91.4183C369.239 91.4607 369.274 91.5116 369.298 91.5678C369.322 91.624 369.334 91.6845 369.334 91.7456C369.334 91.8067 369.322 91.8672 369.298 91.9234C369.274 91.9796 369.239 92.0305 369.195 92.0729C369.152 92.1172 369.1 92.1524 369.043 92.1764C368.986 92.2004 368.925 92.2128 368.863 92.2128C368.801 92.2128 368.739 92.2004 368.682 92.1764C368.625 92.1524 368.573 92.1172 368.53 92.0729C368.067 91.6804 367.519 91.4017 366.93 91.2591C366.34 91.1165 365.725 91.1141 365.135 91.2519C365.054 91.2738 364.969 91.2699 364.89 91.2408Z" fill="#263238"/>
<path d="M374.7 99.7397C374.4 100.494 373.756 100.971 373.268 100.794C372.78 100.616 372.591 99.8174 372.869 99.0518C373.146 98.2863 373.812 97.8203 374.311 97.9423C374.811 98.0644 374.933 98.952 374.7 99.7397Z" fill="#263238"/>
<path d="M374.499 98.2086L372.857 96.9771C372.857 96.9771 373.268 98.719 374.499 98.2086Z" fill="#263238"/>
<path d="M387.17 108.283C385.264 103.075 384.778 97.4535 385.761 91.9953C385.761 91.9953 369.029 91.8622 374.421 87.6682C374.421 87.6682 360.319 83.9624 365.834 77.6159C371.348 71.2694 381.001 75.652 384.84 81.1997C384.84 81.1997 393.372 84.6392 394.493 93.6707C395.813 104.311 382.776 120.51 381.922 116.338C381.422 113.875 387.17 108.283 387.17 108.283Z" fill="#263238"/>
<path d="M390.488 111.157C389.262 112.621 387.507 113.542 385.606 113.72C383.065 113.919 382.277 111.501 383.387 109.381C384.408 107.451 386.937 105.021 389.289 105.787C389.693 105.931 390.064 106.153 390.382 106.441C390.699 106.729 390.956 107.076 391.139 107.464C391.321 107.852 391.426 108.272 391.445 108.7C391.465 109.128 391.4 109.556 391.253 109.958C391.087 110.408 390.826 110.817 390.488 111.157Z" fill="#FFB573"/>
<path d="M382.433 130.24C380.548 131.79 378.356 132.92 376.001 133.555C373.645 134.19 371.182 134.316 368.774 133.924C362.539 132.726 361.784 128.942 361.929 126.69C350.268 126.579 345.341 129.741 345.341 129.741C336.742 141.669 334.523 189.933 334.523 189.933C354.217 196.035 378.117 196.312 378.117 196.312C380.058 179.947 394.105 141.114 394.105 141.114C394.105 141.114 392.407 134.457 382.433 130.24Z" fill="#263238"/>
<path d="M359.798 126.268H363.049C363.049 126.268 362.261 131.028 368.22 132.138C374.178 133.247 381.867 129.408 381.867 129.408L385.14 130.94C385.14 130.94 376.652 137.408 367.032 135.189C357.413 132.97 359.798 126.268 359.798 126.268Z" fill="#263238"/>
<path opacity="0.7" d="M359.798 126.268H363.049C363.049 126.268 362.261 131.028 368.22 132.138C374.178 133.247 381.867 129.408 381.867 129.408L385.14 130.94C385.14 130.94 376.652 137.408 367.032 135.189C357.413 132.97 359.798 126.268 359.798 126.268Z" fill="white"/>
<path d="M373.989 47.1374C373.889 46.971 372.769 43.3539 377.662 41.1127C382.555 38.8715 383.476 40.9906 386.36 39.5927C385.361 42.4529 383.544 44.9568 381.134 46.7934C377.029 50.0221 374.4 47.8031 373.989 47.1374Z" fill="black"/>
<path d="M362.35 58.5544C356.369 62.2934 338.262 71.8686 337.286 70.3153C336.309 68.762 352.819 56.6571 358.81 52.918C364.802 49.1789 370.416 47.3704 371.392 48.9681C372.369 50.5658 368.319 54.8153 362.35 58.5544Z" fill="#25AAE3"/>
<path opacity="0.4" d="M362.35 58.5544C356.369 62.2934 338.262 71.8686 337.286 70.3153C336.309 68.762 352.819 56.6571 358.81 52.918C364.802 49.1789 370.416 47.3704 371.392 48.9681C372.369 50.5658 368.319 54.8153 362.35 58.5544Z" fill="white"/>
<path d="M373.932 44.9878L376.098 48.4485L371.02 51.6279C370.818 51.7544 370.574 51.7954 370.342 51.742C370.11 51.6886 369.908 51.5451 369.781 51.3431L368.604 49.4623C368.477 49.2602 368.436 49.0162 368.49 48.7839C368.543 48.5517 368.687 48.3501 368.889 48.2236L373.967 45.0442L373.932 44.9878Z" fill="#263238"/>
<path opacity="0.5" d="M373.932 44.9878L376.098 48.4485L371.02 51.6279C370.818 51.7544 370.574 51.7954 370.342 51.742C370.11 51.6886 369.908 51.5451 369.781 51.3431L368.604 49.4623C368.477 49.2602 368.436 49.0162 368.49 48.7839C368.543 48.5517 368.687 48.3501 368.889 48.2236L373.967 45.0442L373.932 44.9878Z" fill="white"/>
<path d="M386.338 39.5927C383.453 40.9906 382.532 38.8715 377.639 41.1127C377.161 41.3342 376.701 41.5939 376.264 41.8894C376.139 42.0004 376.06 42.1526 376.039 42.3179C376.019 42.4832 376.059 42.6502 376.153 42.7881C377.018 43.8976 380.302 41.379 380.924 42.1667C381.545 42.9545 379.459 43.6202 380.225 44.6521C380.99 45.6839 379.326 46.6603 380.058 47.5146C380.426 47.2996 380.778 47.0586 381.112 46.7934C383.522 44.9568 385.339 42.4529 386.338 39.5927Z" fill="#25AAE3"/>
<path d="M448.538 61.2283C435.745 59.2866 424.627 62.593 423.707 68.6066C423.185 72.035 430.974 72.9781 435.911 75.7741C439.65 77.8933 439.695 82.1982 445.209 83.0304C458.002 84.972 469.119 81.6657 470.029 75.6521C470.939 69.6385 461.341 63.1811 448.538 61.2283ZM446.385 73.5329C443.434 73.078 441.193 71.7355 441.381 70.5261C441.57 69.3167 444.1 68.6954 447.062 69.1392C450.024 69.583 452.255 70.9366 452.066 72.146C451.877 73.3554 449.348 73.9878 446.385 73.544V73.5329Z" fill="#25AAE3"/>
<path opacity="0.9" d="M448.538 61.2283C435.745 59.2866 424.627 62.593 423.707 68.6066C423.185 72.035 430.974 72.9781 435.911 75.7741C439.65 77.8933 439.695 82.1982 445.209 83.0304C458.002 84.972 469.119 81.6657 470.029 75.6521C470.939 69.6385 461.341 63.1811 448.538 61.2283ZM446.385 73.5329C443.434 73.078 441.193 71.7355 441.381 70.5261C441.57 69.3167 444.1 68.6954 447.062 69.1392C450.024 69.583 452.255 70.9366 452.066 72.146C451.877 73.3554 449.348 73.9878 446.385 73.544V73.5329Z" fill="#263238"/>
<path d="M439.162 66.7759C439.162 67.719 437.531 68.4846 435.512 68.4846C433.492 68.4846 431.828 67.7079 431.828 66.7759C431.828 65.8439 433.459 65.0562 435.478 65.0562C437.498 65.0562 439.162 65.8106 439.162 66.7759Z" fill="#25AAE3"/>
<path opacity="0.9" d="M439.162 66.7759C439.162 67.719 437.531 68.4846 435.512 68.4846C433.492 68.4846 431.828 67.7079 431.828 66.7759C431.828 65.8439 433.459 65.0562 435.478 65.0562C437.498 65.0562 439.162 65.8106 439.162 66.7759Z" fill="white"/>
<path d="M449.914 63.2698C449.914 64.0021 448.438 64.5901 446.585 64.5901C444.732 64.5901 443.257 64.0021 443.257 63.2698C443.257 62.5375 444.744 61.9495 446.585 61.9495C448.427 61.9495 449.914 62.5375 449.914 63.2698Z" fill="#25AAE3"/>
<path opacity="0.7" d="M449.914 63.2698C449.914 64.0021 448.438 64.5901 446.585 64.5901C444.732 64.5901 443.257 64.0021 443.257 63.2698C443.257 62.5375 444.744 61.9495 446.585 61.9495C448.427 61.9495 449.914 62.5375 449.914 63.2698Z" fill="white"/>
<path d="M457.935 69.8715C460.307 69.8715 462.229 69.0569 462.229 68.0519C462.229 67.047 460.307 66.2323 457.935 66.2323C455.564 66.2323 453.642 67.047 453.642 68.0519C453.642 69.0569 455.564 69.8715 457.935 69.8715Z" fill="#25AAE3"/>
<path opacity="0.6" d="M457.935 69.8715C460.307 69.8715 462.229 69.0569 462.229 68.0519C462.229 67.047 460.307 66.2323 457.935 66.2323C455.564 66.2323 453.642 67.047 453.642 68.0519C453.642 69.0569 455.564 69.8715 457.935 69.8715Z" fill="white"/>
<path d="M465.791 76.4731C465.791 77.3829 464.027 78.1374 461.863 78.1374C459.7 78.1374 457.936 77.3829 457.936 76.4731C457.936 75.5633 459.689 74.8088 461.863 74.8088C464.038 74.8088 465.791 75.5522 465.791 76.4731Z" fill="#25AAE3"/>
<path opacity="0.8" d="M465.791 76.4731C465.791 77.3829 464.027 78.1374 461.863 78.1374C459.7 78.1374 457.936 77.3829 457.936 76.4731C457.936 75.5633 459.689 74.8088 461.863 74.8088C464.038 74.8088 465.791 75.5522 465.791 76.4731Z" fill="white"/>
<path d="M453.608 78.3593C453.608 79.4134 451.722 80.2566 449.392 80.2566C447.062 80.2566 445.176 79.4134 445.176 78.3593C445.176 77.3053 447.062 76.4731 449.392 76.4731C451.722 76.4731 453.608 77.3164 453.608 78.3593Z" fill="#25AAE3"/>
<path opacity="0.4" d="M453.608 78.3593C453.608 79.4134 451.722 80.2566 449.392 80.2566C447.062 80.2566 445.176 79.4134 445.176 78.3593C445.176 77.3053 447.062 76.4731 449.392 76.4731C451.722 76.4731 453.608 77.3164 453.608 78.3593Z" fill="white"/>
<path d="M430.02 74.8088C430.02 74.8088 434.247 71.4137 437.021 71.325C437.315 71.325 437.597 71.4418 437.805 71.6499C438.013 71.858 438.13 72.1402 438.13 72.4345C438.13 73.3332 437.997 74.5758 437.231 74.7977C435.862 75.3976 434.56 76.1415 433.348 77.0168L430.02 74.8088Z" fill="#FFB573"/>
<path d="M341.891 144.975C342.357 142.922 343.233 139.172 348.548 143.754C353.863 148.337 352.709 141.413 356.869 141.635C361.03 141.857 355.693 150.112 355.693 150.112C355.693 150.112 362.284 149.435 362.217 153.441C362.151 157.446 353.674 155.893 353.674 155.893C353.674 155.893 349.724 167.742 346.129 163.493C342.534 159.243 348.492 154.617 347.538 150.778C346.584 146.939 340.848 149.779 341.891 144.975Z" fill="#25AAE3"/>
<path opacity="0.8" d="M341.891 144.975C342.357 142.922 343.233 139.172 348.548 143.754C353.863 148.337 352.709 141.413 356.869 141.635C361.03 141.857 355.693 150.112 355.693 150.112C355.693 150.112 362.284 149.435 362.217 153.441C362.151 157.446 353.674 155.893 353.674 155.893C353.674 155.893 349.724 167.742 346.129 163.493C342.534 159.243 348.492 154.617 347.538 150.778C346.584 146.939 340.848 149.779 341.891 144.975Z" fill="white"/>
<path d="M363.959 184.507C364.447 181.889 362.284 176.03 365.89 174.033C369.496 172.036 369.274 181.145 372.702 179.27C376.131 177.395 377.251 180.901 375.776 184.507C374.3 188.113 371.67 188.668 372.702 191.996C373.734 195.325 370.605 192.374 365.89 190.155C361.174 187.936 363.46 187.192 363.959 184.507Z" fill="#25AAE3"/>
<path opacity="0.2" d="M363.959 184.507C364.447 181.889 362.284 176.03 365.89 174.033C369.496 172.036 369.274 181.145 372.702 179.27C376.131 177.395 377.251 180.901 375.776 184.507C374.3 188.113 371.67 188.668 372.702 191.996C373.734 195.325 370.605 192.374 365.89 190.155C361.174 187.936 363.46 187.192 363.959 184.507Z" fill="black"/>
<path d="M332.782 344.944C330.265 356.895 331.893 369.347 337.397 380.249C337.63 380.726 338.407 380.437 338.174 379.96C332.734 369.189 331.122 356.887 333.603 345.077C333.703 344.556 332.882 344.422 332.782 344.944Z" fill="#25AAE3"/>
<path d="M343.066 333.793C342.781 333.784 342.498 333.739 342.223 333.66C339.848 341.238 339.17 349.246 340.237 357.115C340.304 357.637 341.136 357.615 341.069 357.115C340.002 349.289 340.684 341.324 343.066 333.793Z" fill="#25AAE3"/>
<path d="M347.36 322.221C346.27 324.076 345.284 325.991 344.409 327.957C344.668 328.074 344.905 328.236 345.108 328.434C345.99 326.44 346.986 324.499 348.093 322.62C348.37 322.154 347.638 321.755 347.36 322.221Z" fill="#25AAE3"/>
<path d="M363.859 108.15C363.859 108.15 366.334 107.617 373.235 108.006C372.414 110.402 370.894 112.288 367.354 112.089C366.422 112.054 365.539 111.661 364.89 110.991C364.241 110.321 363.876 109.427 363.87 108.494C363.859 108.383 363.859 108.272 363.859 108.15Z" fill="#263238"/>
<path d="M368.996 110.236C367.632 110.072 366.257 110.42 365.135 111.212C365.757 111.739 366.539 112.04 367.354 112.067C368.719 112.227 370.095 111.875 371.215 111.079C370.598 110.544 369.812 110.246 368.996 110.236Z" fill="#A02724"/>
<path d="M364.147 108.105C364.208 108.394 364.341 108.662 364.536 108.884C364.73 109.106 364.979 109.273 365.257 109.37C367.303 109.474 369.354 109.378 371.382 109.082C371.716 109.054 372.038 108.936 372.311 108.741C372.584 108.546 372.8 108.28 372.935 107.972C370.008 107.754 367.067 107.798 364.147 108.105Z" fill="white"/>
<defs>
<linearGradient id="paint0_linear" x1="355.5" y1="89" x2="355.5" y2="397" gradientUnits="userSpaceOnUse">
<stop stop-color="#DDF5FF"/>
<stop offset="1" stop-color="white" stop-opacity="0"/>
</linearGradient>
</defs>
</svg>
